<svg xmlns="http://www.w3.org/2000/svg" width="900" height="230" viewBox="0 0 900 230"><rect width="100%" height="100%" fill="#DDDDDD"/><path fill="#999999" d="M218.19 115.925h11.55q4.26 0 7.42-1.07 3.16-1.06 5.26-3.04 2.1-1.99 3.14-4.83 1.03-2.85 1.03-6.36 0-3.33-1.03-6.04-1.04-2.7-3.11-4.6-2.07-1.89-5.23-2.9t-7.48-1.01h-11.55zm-15.47-41.81h27.02q8.34 0 14.44 1.96 6.09 1.96 10.06 5.46 3.97 3.51 5.89 8.4 1.93 4.88 1.93 10.69 0 6.04-2.01 11.07-2.02 5.03-6.04 8.66-4.03 3.62-10.09 5.63-6.07 2.01-14.18 2.01h-11.55v29.27h-15.47zm105.57 24.15h14.2v59h-8.68q-2.82 0-3.57-2.59l-.97-4.71q-3.63 3.68-8 5.95t-10.29 2.27q-4.83 0-8.54-1.64t-6.24-4.63-3.82-7.1-1.29-9.06v-37.49h14.2v37.49q0 5.41 2.5 8.37t7.5 2.96q3.68 0 6.9-1.64t6.1-4.51zm42.43 17.25v26.46q2.42 2.93 5.26 4.13 2.85 1.21 6.01 1.21 3.28 0 5.9-1.18 2.61-1.17 4.45-3.68 1.84-2.5 2.82-6.38t.98-9.29q0-9.71-3.22-14.05-3.22-4.35-9.26-4.35-4.08 0-7.13 1.87t-5.81 5.26m0-43.7v33.7q3.57-3.74 7.91-5.95t9.92-2.21q5.12 0 9.23 2.01t7.01 5.78q2.91 3.76 4.46 9.11t1.55 12.02q0 7.19-1.78 13.05t-5.09 10.03-7.96 6.47q-4.66 2.3-10.35 2.3-2.76 0-5.01-.54-2.24-.55-4.14-1.53-1.89-.98-3.48-2.38-1.58-1.41-3.01-3.14l-.64 3.97q-.34 1.49-1.18 2.13-.83.63-2.27.63h-9.37v-85.45zm65.27 43.7v26.46q2.41 2.93 5.26 4.13 2.84 1.21 6.01 1.21 3.27 0 5.89-1.18 2.62-1.17 4.46-3.68 1.84-2.5 2.81-6.38.98-3.88.98-9.29 0-9.71-3.22-14.05-3.22-4.35-9.26-4.35-4.08 0-7.13 1.87-3.04 1.87-5.8 5.26m0-43.7v33.7q3.56-3.74 7.9-5.95t9.92-2.21q5.12 0 9.23 2.01t7.01 5.78q2.91 3.76 4.46 9.11t1.55 12.02q0 7.19-1.78 13.05t-5.09 10.03q-3.3 4.17-7.96 6.47t-10.35 2.3q-2.76 0-5-.54-2.25-.55-4.14-1.53-1.9-.98-3.48-2.38-1.58-1.41-3.02-3.14l-.63 3.97q-.35 1.49-1.18 2.13-.84.63-2.27.63h-9.38v-85.45zm51.23 0h14.2v85.45h-14.2zm28.86 26.45h14.26v59h-14.26zm16.22-17.19q0 1.84-.75 3.45t-1.98 2.82q-1.24 1.21-2.91 1.93-1.66.71-3.56.71-1.84 0-3.48-.71-1.64-.72-2.85-1.93-1.2-1.21-1.92-2.82t-.72-3.45q0-1.9.72-3.56.72-1.67 1.92-2.88 1.21-1.21 2.85-1.92 1.64-.72 3.48-.72 1.9 0 3.56.72 1.67.71 2.91 1.92 1.23 1.21 1.98 2.88.75 1.66.75 3.56m58.53 24.5-3.73 5.17q-.64.81-1.24 1.27t-1.75.46q-1.1 0-2.13-.66-1.04-.67-2.47-1.5-1.44-.83-3.43-1.49-1.98-.67-4.91-.67-3.74 0-6.56 1.36-2.81 1.35-4.68 3.88t-2.79 6.12-.92 8.14q0 4.71 1 8.39 1.01 3.68 2.91 6.18t4.6 3.8q2.7 1.29 6.09 1.29 3.4 0 5.49-.83 2.1-.84 3.54-1.84 1.44-1.01 2.5-1.84 1.07-.83 2.39-.83 1.72 0 2.59 1.32l4.08 5.17q-2.36 2.76-5.12 4.63t-5.72 2.99-6.1 1.58q-3.13.46-6.23.46-5.47 0-10.3-2.04t-8.45-5.95-5.72-9.57q-2.1-5.67-2.1-12.91 0-6.5 1.87-12.05t5.49-9.6q3.62-4.06 8.97-6.36 5.35-2.29 12.31-2.29 6.61 0 11.58 2.12 4.98 2.13 8.94 6.1m9.89-7.31h14.26v59h-14.26zm16.22-17.19q0 1.84-.75 3.45t-1.98 2.82q-1.24 1.21-2.91 1.93-1.66.71-3.56.71-1.84 0-3.48-.71-1.64-.72-2.85-1.93-1.2-1.21-1.92-2.82t-.72-3.45q0-1.9.72-3.56.72-1.67 1.92-2.88 1.21-1.21 2.85-1.92 1.64-.72 3.48-.72 1.9 0 3.56.72 1.67.71 2.91 1.92 1.23 1.21 1.98 2.88.75 1.66.75 3.56m32.2 77.11q-7.71 0-11.82-4.34t-4.11-11.99v-32.95h-6.04q-1.15 0-1.95-.75-.81-.74-.81-2.24v-5.63l9.49-1.56 2.99-16.1q.29-1.14 1.09-1.78.81-.63 2.07-.63h7.36v18.57h15.76v10.12h-15.76v31.97q0 2.76 1.35 4.31 1.36 1.56 3.71 1.56 1.33 0 2.22-.32t1.55-.66q.66-.35 1.18-.66.52-.32 1.03-.32.64 0 1.04.32.4.31.86.95l4.26 6.9q-3.11 2.58-7.13 3.91-4.03 1.32-8.34 1.32m54.28-16.16v-9.95q-6.15.29-10.35 1.07-4.2.77-6.73 1.98t-3.62 2.82-1.09 3.51q0 3.73 2.21 5.35 2.21 1.6 5.78 1.6 4.37 0 7.56-1.58t6.24-4.8m-30.02-30.99-2.53-4.54q10.18-9.32 24.5-9.32 5.17 0 9.26 1.7 4.08 1.69 6.9 4.71 2.81 3.02 4.28 7.22t1.47 9.2v37.26h-6.44q-2.02 0-3.11-.6-1.09-.61-1.72-2.45l-1.27-4.25q-2.24 2.01-4.37 3.53-2.13 1.53-4.43 2.56-2.3 1.04-4.91 1.58-2.62.55-5.78.55-3.74 0-6.9-1.01-3.16-1-5.46-3.01-2.3-2.02-3.57-5.01-1.26-2.99-1.26-6.96 0-2.24.74-4.45.75-2.21 2.45-4.23 1.69-2.01 4.4-3.79 2.7-1.79 6.64-3.11t9.17-2.15q5.23-.84 11.96-1.01v-3.45q0-5.92-2.53-8.77t-7.3-2.85q-3.45 0-5.73.81-2.27.8-3.99 1.81-1.73 1.01-3.14 1.81-1.4.81-3.13.81-1.49 0-2.53-.78-1.03-.78-1.67-1.81m2.25-37.83h13.28q2.36 0 3.51.77 1.15.78 1.95 2.27l8.22 13.97h-8.1q-1.61 0-2.62-.43t-2.04-1.58z"/></svg>