<svg xmlns="http://www.w3.org/2000/svg" width="90" height="90" viewBox="0 0 90 90"><rect width="100%" height="100%" fill="#DDDDDD"/><path fill="#999999" d="M19.155 37.095h4.21v17.44h-4.21zm4.79-5.09q0 .55-.22 1.02-.22.48-.59.84-.36.35-.85.57-.5.21-1.06.21-.54 0-1.03-.21-.48-.22-.84-.57-.35-.36-.57-.84-.21-.47-.21-1.02 0-.56.21-1.05.22-.49.57-.85.36-.36.84-.57.49-.21 1.03-.21.56 0 1.06.21.49.21.85.57.37.36.59.85t.22 1.05m7.91 22.53h-4.2v-17.44h2.57q.81 0 1.07.76l.27 1.29q.46-.51.96-.93.5-.43 1.07-.73.57-.31 1.22-.49.66-.17 1.44-.17 1.65 0 2.71.89t1.59 2.37q.41-.87 1.02-1.49t1.34-1.01q.74-.39 1.56-.58.82-.18 1.66-.18 1.44 0 2.56.44 1.13.44 1.89 1.29.77.85 1.17 2.07.4 1.23.4 2.81v11.1h-4.2v-11.1q0-1.67-.73-2.51-.74-.84-2.15-.84-.64 0-1.19.22-.56.22-.97.64-.42.41-.66 1.04t-.24 1.45v11.1h-4.21v-11.1q0-1.75-.71-2.55-.7-.8-2.06-.8-.92 0-1.71.45t-1.47 1.23zm30.65-9.15q.78 0 1.36-.21t.96-.59q.38-.37.58-.9.19-.52.19-1.15 0-1.29-.77-2.05t-2.32-.76-2.32.76q-.78.76-.78 2.05 0 .61.2 1.14.2.52.58.91.38.38.97.59.58.21 1.35.21m4.74 9.93q0-.51-.3-.83-.31-.32-.84-.5-.52-.18-1.23-.27-.71-.08-1.5-.12-.79-.05-1.63-.08t-1.64-.14q-.7.39-1.13.92t-.43 1.23q0 .46.23.85.23.4.73.69t1.3.45q.8.17 1.95.17 1.18 0 2.03-.18t1.4-.5q.55-.31.81-.74.25-.44.25-.95m-.83-17.63h5.01v1.57q0 .74-.9.91l-1.56.29q.36.9.36 1.98 0 1.29-.52 2.33-.52 1.05-1.44 1.78t-2.17 1.13-2.69.4q-.51 0-.99-.05-.47-.05-.93-.14-.82.5-.82 1.11 0 .52.49.77.48.25 1.28.35t1.82.13q1.02.02 2.09.11 1.07.08 2.09.3 1.02.21 1.82.67t1.28 1.25q.49.79.49 2.03 0 1.15-.57 2.24t-1.65 1.94-2.65 1.37q-1.58.52-3.58.52-1.97 0-3.44-.39-1.46-.38-2.43-1.02-.97-.63-1.44-1.47-.48-.83-.48-1.73 0-1.22.74-2.05.74-.82 2.03-1.32-.69-.35-1.1-.95-.41-.59-.41-1.56 0-.39.15-.81.14-.42.42-.82.28-.41.71-.78.42-.36 1-.65-1.33-.72-2.08-1.91-.76-1.19-.76-2.78 0-1.3.52-2.34.52-1.05 1.44-1.79.93-.74 2.2-1.13 1.26-.39 2.76-.39 1.12 0 2.11.23.98.23 1.8.67"/></svg>