<svg width="90" height="60" fill="none" xmlns="http://www.w3.org/2000/svg"><mask id="a" style="mask-type:luminance" maskUnits="userSpaceOnUse" x="0" y="0" width="90" height="61"><path d="M89.98.682H.527v59.91H89.98V.681Z" fill="#fff"/></mask><g mask="url(#a)"><path d="m37.478 43.517-.056-.084v.098s.028 0 .056-.028v.014Zm15.825-7.051h.028l.028-.028h-.084v.07s.028-.028.028-.042Zm-21.76-7.486h-.056s-.041.013-.055.027c.055 0 .083-.028.111-.028Zm27.259-5.435c-.125-.097-.554-.276-1.192-.538-.194-.083-.374-.18-.457-.359h-.125c-.25-.027-.43-.083-.485-.083-.014 0-.07.056-.152.18-.125.027-.25.207-.374.51l-.208.565c0 .097.027.207.138.262h.014c.056.083.097.152.18.207a.955.955 0 0 0 .762.331c.056 0 .208 0 .513-.069.305-.055.527-.096.68-.151-.056-.11-.278-.18-.652-.276-.402-.083-.638-.207-.762-.331-.028 0-.056-.041-.084-.041.028-.056.056-.056.084-.056.055 0 .18.055.304.097.375 0 .652-.041.818-.097.042 0 .07 0 .125.055l1.566.662c.028 0 .055-.027.125-.055-.07-.055-.097-.096-.167-.151-.416-.414-.637-.607-.637-.635l-.014-.027Z" fill="#000"/><path d="M59.233 17.864c3.298 2.234 6.14 4.703 8.523 7.42v.027c.707.759 1.247 1.531 1.58 2.373.457.992.61 2.04.499 3.158a7.9 7.9 0 0 1-.43 2.04c-.125.387-.277.76-.43 1.146-.027.027-.027.082-.027.096.152-.124.305-.234.457-.358 2.079-2.855 1.552-6.082-1.566-9.71-.083-.069-.153-.179-.236-.275h-.027c-.388-.428-.79-.87-1.192-1.27 0 0-.01-.017-.028-.054a59.968 59.968 0 0 0-9.506-7.972c-1.553-.965-2.966-1.324-4.282-1.075-.527.234-1.012.579-1.345 1.02-.512.993-.526 1.862-.055 2.62.028.028.055.042.083.042l1.954 3.668c.333-2.068.97-3.337 1.926-3.875 1.012-.607 2.411-.248 4.116.965l-.014.014Zm-5.321 7.666c-.222 0-.361.07-.361.236 0 .055.055.124.125.235.125.096.18.152.25.152.236 0 .305-.152.305-.456 0-.083-.125-.152-.333-.152l.014-.014Zm.083-1.805s0-.055.014-.055a.386.386 0 0 0 .055-.083h.028s-.028 0-.028-.027h-.014c.014-.11.014-.18.042-.262 0-.125-.042-.207-.18-.235-.097-.055-.25-.069-.457-.055a1.594 1.594 0 0 0-.305.096c-.028.056-.084.097-.084.18a2.134 2.134 0 0 1-.152.33c.083 0 .125.028.125.097.027.028.027.097.027.18h.333c-.097.096-.139.179-.139.206 0 .056.028.083.084.083.124 0 .304-.083.457-.234.097-.124.18-.207.18-.248l.014.027Z" fill="#000"/><path d="M61.034 21.81c-.263-.18-.457-.331-.665-.455-.374-.124-.928-.235-1.621-.331-1.552-.235-2.314-.097-2.314.413v.125a.552.552 0 0 1 .18.096c.055.028.138.07.235.124.097.028.236.028.43 0a.522.522 0 0 1 .43-.234c.18-.028.512-.055.983-.028.208.028.43.028.68.028h.027s.083 0 .139-.028c.07 0 .152.028.208.124v.028c.069 0 .152.055.194.055.36.124.554.235.637.248h.25l.18-.027.027.027s.042-.055.042-.124v-.027s-.028-.014-.042-.028v.014Z" fill="#000"/><path d="M22.12 6.156c-1.068-.414-2.343.124-3.798 1.655-1.455 1.503-2.688 3.517-3.7 6.04-.984 2.58-1.469 4.897-1.441 6.951.028 2.138.61 3.393 1.677 3.82.194.083.374.125.582.125.942.082 1.981-.51 3.215-1.78 1.413-1.475 2.633-3.516 3.617-6.067 1.025-2.552 1.496-4.869 1.482-6.951-.027-1.503-.277-2.593-.859-3.227a2.335 2.335 0 0 0-.762-.566h-.014Z" fill="#278288"/><path d="M53.817 22.554c.083 0 .097-.041.097-.152 0-.083-.056-.207-.18-.332a1.231 1.231 0 0 0-.43-.207v.097c-.029.097-.029.207-.029.332 0 .027.084.082.209.152.125.055.208.096.333.096v.014Zm14.02 5.596a1.763 1.763 0 0 1-.485.207c-.374.151-.61.262-.679.262l-.028.027-.055.055h.028c0 .207.055.304.18.304.083 0 .208-.055.388-.124.152-.097.277-.152.332-.152.347 0 .555.18.68.565.069.207.124.4.124.607 0 .207-.125.386-.332.607-.194.234-.305.358-.305.455 0 .069.013.097.124.097.167-.097.333-.152.43-.207v.124c.236-.124.388-.386.513-.759.055-.179.083-.33.083-.51.028-.124.055-.248.055-.4 0-.248-.055-.483-.18-.69-.18-.261-.457-.427-.86-.455l-.013-.013Zm-1.424 1.312c-.097 0-.18 0-.236.056h-.028s-.069.082-.069.124c-.028.027-.055.055-.11.082 0 0-.028.056 0 .138 0 .07.082.152.152.207.097.152.18.22.235.304.056.055.084.124.125.179 0 .027 0 .083.028.083.152.33.25.551.277.69.25-.042.402-.332.457-.883-.208-.635-.457-.938-.831-.938v-.042Zm.052-6.936.055.028-.027-.028h-.028Zm-1.673 9.942s.056-.028.097-.055c0-.028-.055-.028-.083-.028-.554-.083-.887-.152-.984-.207a.652.652 0 0 1-.208-.482v-.028c-.055-.083-.055-.18-.055-.276v-.18c-.152 0-.374.221-.68.69-.346.51-.512.87-.512 1.09 0 .33.208.483.61.483.388 0 .86-.07 1.469-.235.637-.151 1.04-.303 1.247-.51-.125 0-.277-.028-.43-.069-.249-.083-.43-.152-.485-.207l.014.014Zm1.746-10.299-.056-.028.028.028h.028Zm6.205 7.515c.388 0 .637-.096.831-.248.153-.152.236-.276.236-.4 0-.083-.056-.18-.125-.276-.097-.124-.305-.124-.554-.027-.028-.097 0-.276 0-.566 0-.22-.083-.4-.194-.51-.457-.386-.68-.152-.68.717s.153 1.324.5 1.324l-.014-.014Z" fill="#000"/><path d="m57.86 13.987.181.152s.083.055.083.069c.153.096.305.207.485.33 1.982 1.449 3.049 2.221 3.174 2.345.25.207.665.566 1.164 1.076.485.455.831.786 1.122.965.457.331.832.69 1.095 1.062.125.207.333.51.638.91.124.304.263.566.374.814l.457.455.028.056c.401.413.803.84 1.22 1.268.082.083.152.207.262.304.084.069.153.151.222.262.374.248.776.524 1.261.841.79.483 1.22 1.296 1.275 2.496.097.993.25 1.476.485 1.476.25 0 .374-.841.36-2.551 0-.663-.221-1.228-.61-1.738-.346-.4-1.052-1.02-2.23-1.78-.61-.427-1.164-1.02-1.65-1.723-.61-.869-1.067-1.448-1.44-1.78a63.543 63.543 0 0 0-4.13-3.544c-1.802-1.379-3.506-2.385-5.045-3.075-.027 0-.055.028-.055.152 0 .096.443.482 1.316 1.144l-.041.014ZM33.096 31.82s.125.042.18.097c.028-.027.028-.055.028-.069v-.33c0-.91-.18-1.504-.54-1.807.304.634.402 1.324.332 2.11Z" fill="#000"/><path d="M85.784 84.6s0-.028-.027-.028a.707.707 0 0 0-.36-.456h.027c-3.45-2.44-6.693-5.102-9.811-7.902-.097-.096-.208-.18-.278-.248-.083-.138-.18-.18-.277-.29-.097-.096-.18-.151-.277-.248-.097-.096-.18-.152-.25-.248-.124-.097-.207-.152-.277-.235a1.607 1.607 0 0 0-.304-.248c-.084-.124-.18-.18-.278-.276-.083-.11-.152-.152-.249-.248.097-.11.194-.152.277-.234.153-.07.236-.18.305-.249a.482.482 0 0 1 .097-.124c.028-.069.055-.124.083-.18.083-.123.097-.247.166-.344.056-.152.084-.29.097-.414.028-.027.028-.041.028-.069a.845.845 0 0 0 .236-.206c.055-.028.083-.056.152-.097l.028-.028s.083-.096.097-.096c.097-.097.18-.152.277-.262 4.823-4.151 7.4-7.916 7.788-11.254.028-.041.028-.124 0-.179L83 60.161c-.028-.152-.028-.29-.056-.414v-.069l-.983-4.661s0-.041-.028-.083c-.028-.027-.028-.041-.056-.069a.929.929 0 0 1-.055-.234c-.028-.055-.028-.124-.042-.18v-.027c.125-.124.194-.248.305-.4.457-.717.527-1.503.222-2.4l-.762-2.44c-.25-.787-.652-1.325-1.164-1.587-.028-.013-.042-.013-.097-.041a12.97 12.97 0 0 0-.36-.097c-.153-.027-.305-.055-.43-.055-.056-.096-.111-.262-.153-.358-.055-.124-.097-.248-.152-.386-.014 0-.014-.028-.042-.056a1.27 1.27 0 0 0-.124-.275.727.727 0 0 1-.07-.207c0-.028-.055-.11-.083-.152a2.055 2.055 0 0 1-.124-.248c0-.055-.056-.083-.056-.11-.928-2.014-2.023-3.945-3.298-5.876l-.028-.055c-.083-.082-.152-.18-.222-.207-.706-.482-1.607-.938-2.716-1.406-.097-.07-.208-.097-.305-.124-.124-.07-.25-.097-.388-.152-.097-.055-.194-.083-.332-.124-.097-.028-.18-.042-.277-.07 0-.027-.028-.027-.084-.054a.796.796 0 0 0-.332-.125c-.125-.055-.263-.096-.347-.151-.055-.028-.083-.055-.152-.055 0-.028-.028-.028-.07-.028-.027-.055-.055-.055-.096-.055-.097-.055-.236-.083-.36-.152a.624.624 0 0 0-.028-.386c-.028-.055-.056-.097-.056-.124a.811.811 0 0 0-.277-.359c-.028-.027-.055-.069-.138-.069l-.042-.055h-.028s-.097-.069-.18-.124a1.475 1.475 0 0 0-.305-.18c-.028-.054-.083-.096-.138-.096a.895.895 0 0 0 .43-.096s.008-.01.027-.028c.097-.027.152-.096.222-.152.055 0 .083-.041.138-.069.125-.055.194-.151.333-.206.083-.097.208-.18.305-.235l.027-.027c.097-.042.194-.125.305-.235l.028-.041v-.028c.083-.096.152-.207.222-.303l.027-.028a27.364 27.364 0 0 0 4.241-4.151c0-.028.055-.055.055-.097 1.622-2.8 1.622-5.378 0-7.805-.055 0-.055-.055-.055-.055-.208-.249-.402-.51-.61-.76-.305-1.957-1.289-2.978-2.993-3.06-2.093-1.89-4.49-3.614-7.262-5.228-2.355-1.627-4.684-2.289-6.998-1.958-.055.028-.097.028-.152.028-.097.027-.153.027-.264.082-.097 0-.194.028-.318.028 0 .055-.028.055-.084.055-.124.028-.277.042-.401.07-.125.054-.278.11-.416.123a3.344 3.344 0 0 1-.457.207h-.084c-1.746-.358-3.353.235-4.794 1.765 0 0 0 .056-.028.056 0 0 0 .027-.014.027-.97 1.145-.86 2.551.305 4.248l2.023 3.723c-.028.152-.083.276-.097.428v.096c-.028.07-.028.152-.028.276v.262c0 .125-.027.207-.055.331-.028.056-.055.083-.083.125a1.44 1.44 0 0 1-.18.358c-.056.055-.056.069-.056.069h-.028c-.055.097-.096.207-.152.303-.028.097-.11.207-.125.331-.055.125-.069.235-.097.359-.027.124-.027.248-.055.358l-1.012-.151L24.09 4.83a3.387 3.387 0 0 0-1.192-.84h-.055c-1.497-.662-3.202 0-5.197 2.04-1.677 1.78-3.118 4.152-4.338 7.158-1.164 3.007-1.746 5.737-1.677 8.178.056 2.883.86 4.593 2.44 5.09l.027.027h.028c.277.097.554.18.831.18h.028c.18.027.36.027.513 0 .125 0 .222-.028.346-.056l6.375.938.028.248s.014.055.014.124c.055 0 .055.055.055.07a.59.59 0 0 1 .125.179c.027.055.124.096.18.179.083 0 .125 0 .18.055h.236c.069 0 .124 0 .207-.055.056 0 .098 0 .153.055.277 1.53.762 2.648 1.524 3.462.056.027.083.055.097.124.305.262.638.482.984.662.056.055.125.069.208.096.083.028.125.083.208.083.028.055.028.124.028.18.027.096.055.178.083.261.027.124.055.248.097.386v.056c.332 1.144.693 2.04 1.095 2.592 0 .262.097.566.235.966v.027c-.027 1.407.402 4.055 1.344 7.972.485 1.986 1.04 3.64 1.677 4.964.042.097.125.235.18.359.084.124.125.234.208.331.056.152.153.262.18.386.111.124.153.235.25.331.07.152.152.22.222.359.096.096.152.207.249.33h.028v.028l.734.773.042.027c.055.042.083.07.11.07v.027s.07.027.098.082a.486.486 0 0 1 .124.083l.028.055.07.028c.096.069.152.124.249.152l.055.041.652.303.055.028c.07.028.152.055.208.069.07.028.152.028.208.055h.152c.236.028.43.028.651.028.18-.028.333-.028.486-.055.152-.028.304-.07.457-.097.125 0 .277-.028.43-.069a.828.828 0 0 1 .374-.083c.124-.082.263-.11.388-.138.124-.055.249-.096.388-.124.18-.069.332-.124.485-.193.124-.055.235-.083.36-.151a1.1 1.1 0 0 1 .319-.125c.138-.055.235-.11.332-.151.153-.083.264-.097.374-.18.125-.055.236-.096.333-.179.028 0 .056 0 .056-.027l.637-.276.152.151a.357.357 0 0 1 .125.125c.097.082.236.151.333.248.124.055.25.124.374.18.305.137.61.178.915.178.249 0 .485 0 .65-.069a.825.825 0 0 0 .278-.055l.097-.055h.07l2.535-1.02h-.055a2.826 2.826 0 0 0 1.095-.635 2.02 2.02 0 0 0 .305-.386c.124-.207.221-.4.277-.634.041.262.041.482.097.717.055.207.069.386.097.565.582 2.98 1.191 5.53 1.898 7.64 0 0 0 .056.028.083.055.097.07.207.097.276a.48.48 0 0 0 .083.234c0 .028.028.11.028.152.055.11.097.207.124.29.028.027.028.055.028.083.056.124.097.22.125.358.083.124.097.22.125.359a.845.845 0 0 1-.305.207c-.097.096-.208.151-.305.248a.747.747 0 0 0-.305.207l-.083.041c-.07.028-.153.097-.222.152-.055.027-.07.055-.125.096-.069.028-.124.07-.18.097-.055.055-.152.11-.18.152-.055 0-.083.055-.125.082-.097.055-.18.124-.25.18-.027 0-.054 0-.082.027-.097.083-.208.124-.277.235-4.213 2.854-8.315 5.268-12.279 7.199l-.027.027a1.31 1.31 0 0 0-.374.359.954.954 0 0 0-.111.483v.055c.028.151.069.33.208.482l-.028-.027c7.663 10.977 15.576 19.514 23.71 25.665l.084.028c.07.069.125.096.235.124.125.028.222.055.347.028h.07c9.173-1.793 17.543-5.669 25.027-11.613a.905.905 0 0 0 .305-.482h.027a.891.891 0 0 0 0-.538v-.028Zm-63.22-67.757c-1.108 2.855-2.466 5.089-4.102 6.744-1.288 1.351-2.439 2.013-3.422 1.958a2.367 2.367 0 0 1-.582-.138c-1.11-.482-1.663-1.834-1.691-4.068-.056-2.345.485-4.91 1.594-7.764 1.122-2.828 2.48-5.09 4.101-6.772 1.566-1.6 2.897-2.193 4.005-1.765.305.082.54.262.763.51l.055.055v.028c.582.69.887 1.834.915 3.434.055 2.344-.513 4.91-1.622 7.764l-.014.014Zm56.36 31.692c.804-.152 1.317.124 1.567.924l.762 2.469c.263.745.083 1.407-.5 1.93 0 0-.055.028-.082.056-.236.234-.5.386-.86.551h-.027l-1.15.538-3.52 1.683-.028.027c-.236.083-.43.18-.61.235h.028c-.735.234-1.233.069-1.594-.359a4.9 4.9 0 0 1-.263-.538l-.79-2.44c-.055-.152-.055-.332-.083-.483V53.1a1.671 1.671 0 0 1 .083-.662c.083-.096.125-.234.18-.303l.028-.055.028-.028c.055-.097.097-.124.152-.207.25-.276.61-.538 1.123-.758l1.621-.773 3.936-1.779Zm-3.907 10.068s-.056.096-.07.124c0 .027 0 .055-.027.069a1.6 1.6 0 0 0-.084.207c-.055.055-.083.096-.083.179-.083.124-.124.248-.18.386-.055.097-.083.207-.124.303-.028.028-.056.083-.07.097-.152.441-.277.896-.457 1.42-.028.097-.055.152-.083.263-.056.193-.097.372-.208.565a3.38 3.38 0 0 1-.236.69 5.43 5.43 0 0 1-.25.662c-.055-.249-.055-.483-.124-.69-.055-.234-.07-.483-.125-.745a8.195 8.195 0 0 1-.11-.813 16.469 16.469 0 0 1-.195-1.38c0-.11 0-.206-.027-.303 0-.055 0-.083-.028-.124 0-.152 0-.276-.028-.428a2.035 2.035 0 0 1-.041-.427c-.028-.18-.028-.331-.056-.483-.027-.18-.027-.358-.055-.51.152.096.277.207.402.29.138.04.263.096.388.151.125.028.235.028.346.083h.513c.097-.055.18-.055.25-.055h.083c.124-.028.221-.055.346-.083l.125.248s0 .028.028.028c.027.028.027.083.055.138.028.055.07.124.097.151l.028-.013Zm-5.46-15.695v-.124c.027-1.379.207-2.855.388-4.482.25.083.512.18.79.303 1.593.538 2.84 1.118 3.7 1.738a46.15 46.15 0 0 1 4.212 7.944l-1.801.814-3.63 1.627c-.555.248-.97.552-1.22.869l-.028.027-.056.055c-.069-.055-.097-.11-.152-.179l-.055-.027a.766.766 0 0 1-.194-.124v-.028s-.07-.055-.125-.069c-.097-.096-.194-.207-.305-.331l-.86-1.448c-.096-.262-.152-.51-.249-.8 0-.028-.027-.096-.027-.124-.028-.124-.07-.234-.097-.359-.25-1.351-.36-3.13-.278-5.268l-.013-.014Zm.61 26.438h.304c.236 0 .43-.083.61-.18 0 0 .01-.008.028-.027a28.411 28.411 0 0 0 1.857-2.606v-.028l.027-.055c.25-.483.5-.91.68-1.38v.056c.249-.51.457-.965.637-1.462.36-.69.762-1.476 1.192-2.413l1.538-3.572.18-.18c.055-.027.083-.069.097-.069.402-.33.79-.51 1.136-.482.056 0 .084-.028.125-.028a.211.211 0 0 0 .07-.151c0-.028-.028-.097-.056-.097-.028-.069-.07-.097-.152-.097-.333 0-.735.097-1.137.387l.056-.056c.554-.482 1.011-.868 1.372-1.02 1.191-.566 1.967-.924 2.342-1.117.041.124.097.234.124.358l.984 4.69s.028.096.028.151a.276.276 0 0 1 .041.152v.124-.138c-.041-.055-.041-.097-.041-.152-1.22 2.648-2.079 4.248-2.536 4.841-.333.331-1.012 1.145-1.996 2.427-.097.124-.208.249-.305.4-.36.428-.706.814-1.067 1.2-.18.18-.374.386-.526.538-.083.055-.125.152-.236.18-.027.054-.055.096-.097.096-.693.634-1.316 1.269-1.884 1.834-.097-.124-.194-.276-.333-.359-.055-.055-.125-.055-.152-.055-.084.055-.097.055-.125.097-.056.027-.056.082-.056.138.056.082.056.096.07.124a.762.762 0 0 1 .277.276l.014.041s-.125.138-.18.18c-.305.33-.887.634-1.802.882-.028-.028-.028-.055-.028-.097v.028-.097l.056-.069c.028-.027.028-.055.055-.055 0-.055.056-.083.056-.11.055-.083.097-.124.124-.207.028-.069.028-.096.028-.124-.028-.083-.028-.097-.083-.124-.056-.028-.07-.028-.153 0-.027 0-.069.027-.096.055-.042.097-.125.207-.208.331-.028.055-.084.083-.097.124 0 0 .027-.028.083-.028a.948.948 0 0 1-.374.207c-.097 0-.208.028-.222.055-.056-.055-.056-.124-.111-.124-.028-.055-.083-.055-.125-.055-.069.028-.097.055-.125.07-.027.054-.055.096-.027.15a.68.68 0 0 1 .027.235v.124a.376.376 0 0 0-.124.304.703.703 0 0 1-.18.248.772.772 0 0 1-.388.097h-.028a.605.605 0 0 1-.305-.207c0-.58.25-1.145.762-1.683.208-.248.43-.455.707-.69h.028s.055-.054.097-.068c.055-.055.055-.083.055-.124.028-.055 0-.124 0-.152a.253.253 0 0 0-.152-.055c-.056-.055-.097 0-.125.027-.055.028-.11.055-.139.097-.277.262-.526.483-.79.717a3.5 3.5 0 0 0-.457.69 2.068 2.068 0 0 0-.097.151c-.055.124-.097.276-.152.428-.056.138-.097.262-.153.427a.737.737 0 0 1-.208.207l-.332.055c-.083-.027-.153-.055-.277-.096l-.097-.07v-.054a.324.324 0 0 1-.153-.152c.153-.745.582-1.53 1.22-2.4.055-.027.069-.069.097-.124.055-.069.097-.124.097-.179.028-.055.028-.083 0-.152 0-.055-.028-.082-.083-.096-.056-.028-.07-.028-.125 0-.055.027-.097.027-.125.096 0 .028-.055.07-.083.124-.028.028-.055.055-.055.083l-.056.028c-.125.207-.25.358-.374.538 0 .027 0 .055-.028.069-.277.303-.457.579-.526.786a3.088 3.088 0 0 0-.36.84c-.028.028-.056.084-.098.153h-.25s-.027 0-.096-.028l-.055-.028.027.028c-.152-.083-.222-.18-.332-.29-.028-.055-.084-.096-.097-.151l.485-1.2c.124-.386.332-.69.554-.938a2.51 2.51 0 0 1 .499-.51c.055-.028.083-.083.083-.097.055-.055 0-.138-.028-.18a.486.486 0 0 0-.124-.082c-.056 0-.097 0-.125.055-.208.152-.402.359-.61.593-.194.276-.43.635-.582 1.035h-.028l-.152.358c0 .083-.055.097-.055.152-.153.234-.278.359-.402.4a.3.3 0 0 1-.125-.097c0-.027 0-.055-.056-.055-.055-.151 0-.358.084-.662.305-.896.679-1.586 1.191-2.096a.584.584 0 0 1 .18-.097l.084-.027a.557.557 0 0 1 .388-.083h.124a5.904 5.904 0 0 1 2.509.331l.027.07ZM51.5 33.034c0-.18.028-.304.11-.428.25 0 .527-.069.79-.151.153-.083.305-.18.486-.249.734-.44 1.274-1.075 1.649-1.958 0-.041 0-.083.027-.124.097-.303.18-.593.222-.841v-.028c.028-.248.083-.51.028-.745v-.055c0-.248-.028-.51-.083-.758h-.056v-.055c-.152-.607-.457-1.049-.887-1.352-.124-.124-.277-.207-.457-.303h-.028c-.124-.07-.208-.152-.305-.207a.236.236 0 0 0-.152-.124c-.097-.028-.18-.028-.18.055 0 .11.028.179.083.207l-.374-.07s-.056-.123-.07-.179l-.18-.027v-.124c-.097-.69 0-1.242.278-1.71.124-.207.249-.428.304-.607l.028-.028c.125-.248.153-.483.153-.69v-.179c0-.151 0-.234.027-.33.028-.235.097-.4.153-.58l-2.176-4.082c-.984-1.393-1.095-2.538-.346-3.434 1.233-1.324 2.619-1.834 4.13-1.531.027 0 .082 0 .082.083h.056c2.91-1.269 5.862-.897 8.772 1.2 2.813 1.627 5.252 3.392 7.358 5.323 1.497 0 2.356.869 2.578 2.648.25.303.485.593.734.896 1.442 2.166 1.442 4.51 0 7.006A23.107 23.107 0 0 1 70 33.627c-.083.124-.152.276-.277.427 0 .028-.055.056-.097.083-.333.22-.68.455-1.04.703.056-.027.084-.069.112-.124.027-.055 0-.082-.056-.138 0-.027-.028-.055-.055-.069l-.056-.027s-.07 0-.152.041c0 .028 0 .028-.028.028-.125.152-.236.29-.36.427v.028c-.167.18-.347.359-.5.552-.096.096-.18.206-.249.276-.097 0-.18 0-.25.055 0 .027-.055.027-.096.027l-.028.055h-.055l-.056.056c-.027.027-.069.055-.069.096l-.055.055s-.056.097-.028.152v.028s.055.069.07.069c.027.027.069.055.124.027.055 0 .11-.028.125-.055 0-.055.055-.07.083-.11l.055-.028a.49.49 0 0 1 .305-.097l.347.152c.277.207.554.386.803.58h.056c-.056.206-.097.386-.18.579v.055c-.458 1.572-1.345 3.13-2.62 4.578a6.16 6.16 0 0 1-.637-.992.723.723 0 0 0-.097-.152c-.028-.097-.083-.18-.083-.262 0-.055-.028-.07-.056-.124a.551.551 0 0 0-.097-.221c-.124-.276-.304-.483-.554-.58a.374.374 0 0 0-.208-.151c-.055-.041-.083-.041-.124-.027-.056 0-.084.027-.125.055v.179s.027.055.083.096a.33.33 0 0 1 .18.125l.028.055c.18.082.305.207.374.4a.47.47 0 0 1 .125.234v.055a.447.447 0 0 1 .097.235c-.305.276-.638.607-1.04.91a.731.731 0 0 0-.152.124 29.861 29.861 0 0 1-2.813 1.876c-.056.055-.097.11-.18.124-.153.11-.305.18-.458.276-.028 0-.041.055-.041.055-.056.027-.097.041-.097.124v.124l-.832.483s-.028.027-.055.027c-.028.028-.056.028-.083.056l-.028-.028s0 .028-.028.028c-.277.179-.54.33-.831.51-.097-.11-.18-.18-.277-.262 0-.028 0-.07-.028-.097l-.028.055-1.22-1.213a.688.688 0 0 0-.152-.18 2.01 2.01 0 0 0-.208-.234l-.706-.91c-.084-.11-.153-.235-.25-.331 0-.028 0-.055-.028-.083-.041-.041-.069-.124-.124-.193l-.638-1.076a1.01 1.01 0 0 0-.083-.207c-.055-.096-.07-.151-.152-.262l-.125-.358h.014v-.07c.138-.15.388-.247.374-.468.374-.497.582-.676 1.025-.731h.056v-.028s.014-.027 0-.027l-.028-.028a.906.906 0 0 0-.734.152c-.084.096-.208.248-.388.455-.056.083-.125.152-.167.235-.138.234-.277.386-.388.51l-.027.027-.028.028-.07-.028c-.027-.027-.083-.027-.124.028l-.25.152v-.028l-.152.083c.097-.428.153-.842.25-1.255v-.028c.194-.896.401-1.558.498-2.04.028-.056.028-.097 0-.125 0-.055-.055-.055-.097-.096.153-.4.277-.663.388-.69.056-.028.125-.041.167-.07l.9-.33c.125-.055.222-.11.333-.124v.607c0 .386 0 .786.028 1.117v.027c0 .083 0 .18.027.235l.028.455s0 .055.028.055l.028.331c.027.069.041.124.097.152.027.027.055.055.138.027a.364.364 0 0 1 .014.097h-.014v.027s-.055.028-.055.042c.055.083.069.18.069.303h.055v.028l.07.207.097.33a4.056 4.056 0 0 1-.125-.565v-.027c0-.097-.041-.235-.041-.304v-.055s-.056-.055-.056-.096c.055-.028.055-.056.097-.056a.25.25 0 0 0 .028-.124l-.028-.358s0-.055-.041-.097v-.414c-.056-.082-.056-.151-.056-.234 0-.331-.014-.731-.014-1.117v-.58s.014-.082.014-.123v-.028c0-.331.055-.717.055-1.145.638 0 1.345-.055 2.148-.179.194-.041.43-.069.652-.152 1.108-.234 2.05-.276 2.84-.234.042 0 .07-.028.098-.028.069-.027.069-.069.069-.124 0-.055 0-.096-.055-.124-.028-.041-.056-.069-.097-.069-.097-.028-.167-.028-.278-.028-.762-.055-1.649.056-2.66.249-1.123.234-2.162.469-3.118.744-.236.028-.513.028-.818.028-.831 0-1.58-.152-2.231-.441-.638-.304-.984-.662-1.067-1.104v-.124.028Zm7.026 19.363a.724.724 0 0 1 1.011 0 .84.84 0 0 1 .208.538.785.785 0 0 1-.208.537c-.124.152-.332.207-.498.207-.208 0-.389-.055-.513-.207-.18-.124-.25-.33-.25-.538 0-.206.083-.386.25-.537Zm-.277-3.572a.63.63 0 0 1-.222-.51c0-.207.083-.387.222-.538a.84.84 0 0 1 .526-.207c.18 0 .374.083.513.207a.771.771 0 0 1 .208.538c0 .206-.07.386-.208.51a.688.688 0 0 1-.513.234.67.67 0 0 1-.526-.234Zm.983 8.206a.692.692 0 0 1 .513-.235c.236 0 .416.097.555.235.124.151.18.303.18.537 0 .18-.056.387-.18.51a.756.756 0 0 1-.555.235c-.208 0-.388-.069-.512-.234a.768.768 0 0 1-.208-.51c0-.235.083-.387.208-.538ZM35.606 31.172c0-.124.028-.248.041-.386.028-.055.028-.124.07-.18.027-.082.055-.123.124-.151.028-.055.125-.055.18-.055h.056c.083-.028.18-.055.25-.083.069-.055.166-.097.221-.152.083-.055.125-.124.153-.151.083-.11.096-.235.152-.331v-.028l.707.096h.055l1.774.263h.028l.36.082h.028l8.342 1.2 2.231 1.738v.027c.07.056.125.07.208.097.07.027.125.055.18.083l.028.055c.028.124.042.234.042.33.055.153.124.277.235.4.097.152.222.277.402.4 0 0 .018.02.056.056v.028s.055 0 .055.027c.028.028.083.069.125.069.152.124.36.207.554.303h.028s.069.056.097.083c.083.028.124.055.221.07.028 0 .056 0 .084.027l.055.027a9.6 9.6 0 0 0 .638.18c.069 0 .194.027.277.055h.069s.055 0 .055.027c.305.028.61.056.943.056l-.638.234s-.07 0-.124.028c-.056.027-.084.027-.125.082h-.056s-.027.028-.083.056a.712.712 0 0 0-.208.206c-.097.124-.18.276-.25.428h.084l-.028.027h-.027s-.028.028-.028.042v-.07s-.042 0-.07.028h-.027l-1.455.235h-.042c-.083.028-.152.028-.277.055-.055 0-.097.028-.125.041-.152.028-.277.028-.401.056-.583.055-1.137.179-1.802.33 0 0-.055 0-.083.028-.25.07-.513.152-.762.235v.027s-.042 0-.097.028c0 0-.028 0-.056.027a66.81 66.81 0 0 1-2.868 1.27l-.014.027a1.344 1.344 0 0 0-.36.151c-.014 0-.042 0-.07.028-.097.028-.208.069-.305.097-.028.027-.083.055-.125.082a1.984 1.984 0 0 1-.263.083c-.083-.055-.18-.138-.305-.18-.027-.027-.055-.027-.083-.04-.637-.304-1.316-.304-2.106-.028l-2.508.993c-.291.096-.513.234-.735.358-.097.055-.166.152-.277.235-.61.538-.86 1.351-.735 2.4v.082c.028.152.07.262.097.4 0 0 .028.055.056.083l-.056.028v-.097s-.097-.097-.124-.152c-.056-.083-.125-.124-.153-.207-.055 0-.055-.055-.069-.055 0-.027-.028-.055-.056-.083h.028s-.069-.096-.124-.151c-.5-.635-1.04-1.504-1.525-2.524-.097-.152-.152-.303-.235-.455-.028-.07-.056-.124-.097-.207a6.628 6.628 0 0 0-.208-.51c-.056-.097-.097-.207-.153-.304-.055-.124-.083-.248-.152-.358-.028-.097-.056-.207-.125-.304v-.055c-.055-.124-.07-.234-.125-.33a1 1 0 0 0-.152-.36 1.195 1.195 0 0 0-.139-.33c-.027-.11-.055-.235-.097-.304 0-.027 0-.055-.027-.069a.757.757 0 0 0-.125-.33c.125-.056.25-.139.36-.208.097-.055.222-.124.305-.206.097-.07.208-.152.305-.207.028-.056.055-.056.055-.083.097-.083.167-.124.25-.207.07-.055.125-.124.18-.18.055-.027.083-.068.083-.096l.028-.027c.236-.207.43-.442.582-.69.028-.055.041-.096.07-.152.22-.634.304-1.227.207-1.779-.028-.069-.028-.151-.041-.234-.028-.055-.056-.097-.084-.18 0-.055-.027-.068-.055-.068v-.056s-.028-.082-.056-.124c-.083-.124-.18-.262-.304-.33h-.028v-.387l.014-.055Zm-9.313-1.145-.027.028c-.028.083-.028.152-.056.22-.43-.606-.707-1.503-.86-2.647l4.865.69.36.054h.028l2.882.456v.027c-.124-.027-.221-.027-.346-.027h-.055c-.125.027-.305.055-.485.151-.028-.027-.084-.055-.125-.082h-.028a1.188 1.188 0 0 0-.526-.056c-.098.028-.18.028-.25.055-.041.028-.07.056-.125.056h-.027c-.056-.083-.084-.097-.111-.125-.07-.068-.097-.096-.18-.124-.056-.082-.125-.124-.208-.124 0 0-.056 0-.083-.041-.042 0-.125 0-.18-.028h-.208c-.125-.055-.236 0-.36 0h-.028c-.125.028-.278.083-.485.124-.042 0-.125.056-.18.083-1.47-.441-2.537.028-3.243 1.324l.041-.014Zm5.225-1.048s-.056.028-.111.028a.105.105 0 0 0 .055-.028h.056Zm8.162 21.749-.804.51c-1.496.842-2.563 1.255-3.145 1.255-.86 0-1.927-.303-3.174-.938.055.083.152.207.208.304-1.109-1.393-2.051-3.669-2.813-6.744-.915-3.972-1.372-6.62-1.303-7.916-.028-.028-.055-.097-.083-.152-.152-.455-.208-.745-.152-.938-.527-.634-.984-1.779-1.372-3.461.097.069.235.096.374.124.637.11 1.095.234 1.427.33a.166.166 0 0 0 .083.028c.222.055.402.083.527.11.305.056.513.125.61.263.207.179.388.276.54.262.25-.055.554-.097.831-.097l1.4.359c.125.027.277.124.513.303.208.152.333.262.402.262h.055c.125 0 .277-.11.458-.33l.207-.332s-.055-.124-.097-.179c-.097-.152-.305-.303-.61-.455-.498-.276-.762-.538-.817-.786 0-.18 0-.304-.028-.386-.305.427-.305.786-.055 1.09-.208.206-.43.303-.735.261h-.152c-.097-.027-.152-.055-.236-.055 0-.069 0-.096.028-.18-.028-.261-.028-.44-.028-.482l.07-.883c0-1.075-.097-1.751-.36-2.04.249 1.406.235 2.55-.056 3.392-.457.262-.887.207-1.261-.152.055-.124.083-.276.125-.51.027-.234.055-.428.083-.634 0-.607-.028-1.021-.056-1.2 0-.124-.097-.359-.235-.635a1.548 1.548 0 0 0-.167-.386c-.055-.055-.097-.055-.097-.055.25.565.375 1.076.402 1.558l-.097 1.228a1.33 1.33 0 0 1-.152.358v.028c-.513.152-.887.028-1.123-.359-.027-.262 0-.51.125-.744l-.055.027v-.055s-.042-.096-.07-.124v-.028a59.202 59.202 0 0 1-.235-.69c-.028-.068-.042-.15-.097-.178h-.056s-.124.055-.194.124c-.055.055-.152.096-.332.206-.125.056-.18.125-.18.207.027.056.027.11.055.124.056.042.125.042.25.028-.028.028-.028.083-.028.124 0 .042-.028.11-.056.124l-.083.18a2.805 2.805 0 0 1-1.247-.442l-.028-.027c-.124-.304-.124-.69 0-1.09.638-1.144 1.622-1.503 2.938-1.103.915-.4 1.524-.303 1.843.358.056-.055.153-.082.18-.096h.028s0-.028.028-.028c.221-.096.457-.124.707-.055.097 0 .152.083.221.124.54-.276.943-.248 1.248.124l-.028.276s.028.097.055.152c.014.028.056.055.125.055h.028c.207.662.18 1.407-.028 2.138.152.055.36.11.54.11h.388c.125 0 .25 0 .375-.028.249.538.249 1.145 0 1.835a4.83 4.83 0 0 1-.582.73 8.59 8.59 0 0 0-.735.511c-.166.124-.457.248-.942.386-.277.097-.43.235-.43.414v.055c0 .207.153.69.54 1.352.25.455.486.772.638.937.194.538.402 1.048.638 1.504.679 1.475 1.358 2.648 2.05 3.516.555.635.984 1.242 1.372 1.835l.707-.456s.056.083.097.097c.083.303.18.662.25 1.048.152.593.332 1.255.526 2.014.028.082.125.993.277 2.703v.055l.042-.069Zm6.513.248-2.508.993h.028l-.125.028s-.07.055-.097.055c-.056 0-.097.028-.153.055-.097 0-.194.028-.346.028-.152 0-.36-.083-.582-.207a.881.881 0 0 1-.333-.248l-.055-.056c-.125-.151-.208-.29-.333-.386 0-.055-.083-.151-.124-.207-.153-.179-.222-.33-.305-.455-.056-.151-.153-.441-.305-.813-.194-.359-.333-.635-.402-.842-.208-.358-.333-.634-.388-.813-.125-.51-.333-1.076-.582-1.683-.097-.33-.18-.607-.263-.841a1.65 1.65 0 0 0-.25-.428.819.819 0 0 0-.097-.386c-.028-.083-.055-.152-.055-.207l-.153-.386c-.097-.276-.194-.565-.277-.786-.277-1.227.056-2.014.942-2.372l2.509-.993c.61-.235 1.192-.124 1.704.331.028.028.056.055.097.124l.056.028s.097.124.097.206h.055c.056.083.153.263.305.51.125.18.222.428.305.69l1.954 4.993.332.924c.18.4.305.786.347 1.117.18 1.02-.152 1.71-.984 2.041l-.014-.014Zm4.24-12.08c-.276.482-.498 1.047-.734 1.599-.54 1.476-.887 3.103-1.04 4.937-.04.386-.082.759-.082 1.172 0 .124 0 .235-.028.359v.634c.028.18.055.386.097.566l-.152.096a.491.491 0 0 0-.264.083c-.235.097-.512.18-.762.303-.055-.303-.18-.634-.305-.965l-2.286-5.93a7.264 7.264 0 0 0-.347-.745c-.125-.234-.25-.386-.305-.483 0-.055 0-.082-.083-.096v-.028s.083-.027.139-.055c2.203-.924 3.603-1.53 4.254-1.862.25-.069.485-.151.735-.206.582-.18 1.136-.331 1.677-.36H51c-.18.304-.402.621-.582.966l.014.014Zm9.784 57.412c-8.093-6.123-15.922-14.605-23.53-25.5 4.947-2.427 10.102-5.558 15.437-9.447a108.886 108.886 0 0 0 5.53-4.206 118.379 118.379 0 0 0 9.354 11.763c-.056.028-.125.056-.194.097-.568.538-.984 1.255-1.275 2.22-.125.387-.153.635-.083.814l.027.028c.097.124.25.234.416.33h.014s.028.028.028.056h.152v.055c.028.069.097.18.153.248a.868.868 0 0 0 .36.304c.055.027.097.083.152.083l.056.055h.055s.07 0 .097.013h.416l.028.028c.055.097.124.207.208.276l.152.083c.097.096.222.124.346.151l.513-.055.056-.027c.027-.028.069-.028.069-.028h.125c.374.358.734.441 1.15.18.097-.125.166-.304.194-.511a.388.388 0 0 0 .055-.18c.056-.027.111-.082.18-.11.028-.014.07-.014.097-.041.084-.028.18-.055.278-.083.027.028.027.055.041.055.208.18.388.373.568.566.153.124.278.276.458.455.124.11.25.234.401.358 3.909 3.82 8.107 7.31 12.57 10.523-7.359 5.889-15.59 9.682-24.654 11.447Z" fill="#000"/><path d="M82.234 59.97s0 .097.042.152a.314.314 0 0 0-.042-.152Z" fill="#000"/></g></svg>