<svg xmlns="http://www.w3.org/2000/svg" width="420" height="200" viewBox="0 0 420 200"><rect width="100%" height="100%" fill="#DDDDDD"/><path fill="#999999" d="M94.67 74.34v41.93h-7.83V74.34zm15.4 41.93h-7.17V86.52h4.38q1.39 0 1.83 1.3l.46 2.2q.79-.87 1.64-1.59.86-.73 1.83-1.25t2.09-.82q1.11-.31 2.45-.31 2.81 0 4.62 1.52 1.82 1.53 2.71 4.05.7-1.48 1.74-2.54 1.05-1.06 2.3-1.72 1.24-.67 2.65-.99t2.83-.32q2.46 0 4.38.76 1.91.75 3.21 2.2 1.31 1.45 1.99 3.54t.68 4.78v18.94h-7.16V97.33q0-2.84-1.25-4.27-1.24-1.44-3.65-1.44-1.1 0-2.05.38-.94.37-1.65 1.08t-1.12 1.79q-.4 1.07-.4 2.46v18.94h-7.19V97.33q0-2.98-1.21-4.35-1.2-1.36-3.52-1.36-1.57 0-2.91.77-1.35.77-2.51 2.1zm48.57 0h-7.16V86.52h4.38q1.39 0 1.82 1.3l.47 2.2q.78-.87 1.64-1.59.85-.73 1.82-1.25.98-.52 2.09-.82 1.12-.31 2.45-.31 2.82 0 4.63 1.52 1.81 1.53 2.71 4.05.7-1.48 1.74-2.54t2.29-1.72q1.25-.67 2.65-.99 1.41-.32 2.83-.32 2.47 0 4.38.76 1.91.75 3.22 2.2 1.3 1.45 1.99 3.54.68 2.09.68 4.78v18.94h-7.17V97.33q0-2.84-1.24-4.27-1.25-1.44-3.66-1.44-1.1 0-2.04.38-.94.37-1.65 1.08t-1.12 1.79q-.41 1.07-.41 2.46v18.94h-7.19V97.33q0-2.98-1.2-4.35-1.21-1.36-3.53-1.36-1.56 0-2.91.77t-2.51 2.1zm57.13-7.69v-5.01q-3.1.14-5.22.53-2.12.4-3.39 1-1.28.61-1.83 1.43-.55.81-.55 1.76 0 1.89 1.12 2.7 1.11.81 2.91.81 2.21 0 3.82-.79 1.6-.8 3.14-2.43m-15.14-15.63-1.27-2.29q5.13-4.7 12.35-4.7 2.61 0 4.67.86t3.48 2.38 2.16 3.64q.74 2.11.74 4.64v18.79h-3.25q-1.01 0-1.56-.3-.55-.31-.87-1.24l-.64-2.14q-1.13 1.01-2.21 1.78-1.07.77-2.23 1.29t-2.48.8q-1.32.27-2.91.27-1.89 0-3.48-.5-1.6-.51-2.76-1.53-1.16-1.01-1.8-2.52-.63-1.51-.63-3.51 0-1.13.37-2.25.38-1.11 1.24-2.13.85-1.01 2.21-1.91 1.37-.9 3.35-1.57 1.99-.66 4.63-1.08t6.03-.51v-1.74q0-2.99-1.27-4.42-1.28-1.44-3.69-1.44-1.74 0-2.88.41-1.15.4-2.02.91t-1.58.91q-.71.41-1.58.41-.75 0-1.28-.39-.52-.39-.84-.92m39.73 7.72q1.34 0 2.32-.36.99-.37 1.64-1 .65-.64.99-1.54.33-.9.33-1.97 0-2.21-1.32-3.5t-3.96-1.29-3.95 1.29q-1.32 1.29-1.32 3.5 0 1.04.33 1.94t.99 1.55q.65.65 1.65 1.02 1 .36 2.3.36m8.1 16.93q0-.87-.53-1.42-.52-.55-1.42-.85-.9-.31-2.1-.45-1.2-.15-2.55-.22t-2.79-.13q-1.43-.06-2.8-.23-1.18.66-1.92 1.56t-.74 2.09q0 .79.39 1.47t1.25 1.17q.85.49 2.21.77 1.37.28 3.34.28 2 0 3.45-.31 1.45-.3 2.39-.84t1.38-1.28.44-1.61m-1.43-30.07h8.56v2.67q0 1.27-1.54 1.56l-2.67.5q.61 1.53.61 3.36 0 2.21-.88 3.99-.89 1.78-2.45 3.03-1.57 1.25-3.7 1.93t-4.6.68q-.87 0-1.68-.09-.81-.08-1.59-.23-1.4.84-1.4 1.89 0 .9.83 1.32t2.19.59 3.1.22q1.74.04 3.57.19 1.83.14 3.57.5 1.74.37 3.1 1.15t2.19 2.13.83 3.47q0 1.97-.97 3.82-.98 1.86-2.82 3.31t-4.52 2.33q-2.68.89-6.11.89-3.36 0-5.85-.65-2.5-.66-4.15-1.74-1.65-1.09-2.47-2.51-.81-1.42-.81-2.96 0-2.09 1.26-3.49 1.26-1.41 3.47-2.25-1.19-.61-1.89-1.63-.69-1.01-.69-2.66 0-.67.24-1.38.25-.71.73-1.41.48-.69 1.2-1.32.73-.62 1.71-1.11-2.26-1.22-3.55-3.25t-1.29-4.76q0-2.2.89-3.99.88-1.78 2.46-3.04t3.74-1.93 4.71-.67q1.92 0 3.6.4 1.68.39 3.07 1.14m13.32-1.01h7.19v29.75h-7.19zm8.17-8.68q0 .93-.37 1.74-.38.82-1 1.43-.63.6-1.47.97-.84.36-1.8.36-.92 0-1.75-.36-.83-.37-1.44-.97-.61-.61-.97-1.43-.36-.81-.36-1.74 0-.95.36-1.79t.97-1.45 1.44-.97q.83-.37 1.75-.37.96 0 1.8.37.84.36 1.47.97.62.61 1 1.45.37.84.37 1.79m12.53 9.98.49 2.35q.9-.9 1.9-1.67t2.12-1.3q1.12-.54 2.39-.84 1.28-.31 2.79-.31 2.43 0 4.32.83 1.88.82 3.14 2.32 1.27 1.49 1.92 3.57.65 2.07.65 4.56v18.94h-7.16V97.33q0-2.72-1.25-4.22-1.25-1.49-3.8-1.49-1.85 0-3.48.84-1.62.84-3.07 2.29v21.52h-7.16V86.52h4.37q1.4 0 1.83 1.3m32.16 10.15h13.52q0-1.39-.4-2.62-.39-1.24-1.17-2.16-.78-.93-1.99-1.47-1.2-.54-2.8-.54-3.1 0-4.88 1.77t-2.28 5.02m18.27 4.32h-18.41q.17 2.29.81 3.96t1.68 2.76q1.04 1.08 2.48 1.62t3.18.54 3-.41 2.2-.9 1.65-.9q.71-.4 1.38-.4.9 0 1.34.66l2.05 2.61q-1.18 1.39-2.66 2.34-1.48.94-3.09 1.51-1.61.56-3.28.79t-3.23.23q-3.11 0-5.77-1.02-2.67-1.03-4.64-3.05-1.98-2.02-3.11-4.99t-1.13-6.89q0-3.04.99-5.72.98-2.69 2.83-4.67 1.84-1.99 4.49-3.15t5.99-1.16q2.81 0 5.19.9t4.09 2.63q1.71 1.72 2.68 4.23t.97 5.73q0 1.62-.34 2.19-.35.56-1.34.56"/></svg>