<svg xmlns="http://www.w3.org/2000/svg" width="48" height="48" viewBox="0 0 48 48"><rect width="100%" height="100%" fill="#DDDDDD"/><path fill="#999999" d="M11.92 26.495q.39 0 .7-.14.31-.12.52-.36.21-.23.32-.57.11-.33.11-.75v-4.33h1.35v4.33q0 .65-.21 1.19-.21.55-.59.95-.39.4-.95.62-.55.22-1.25.22t-1.25-.22q-.56-.22-.94-.62-.39-.4-.6-.95-.21-.54-.21-1.19v-4.33h1.35v4.32q0 .42.11.75.11.34.33.58.21.24.52.36.3.14.69.14m6.03 1.16q-.67 0-1.03-.38-.35-.38-.35-1.04v-2.87h-.53q-.1 0-.17-.06t-.07-.19v-.5l.83-.13.26-1.4q.02-.1.09-.16.07-.05.18-.05h.64v1.62h1.37v.87H17.8v2.78q0 .24.12.38.12.13.32.13.12 0 .19-.02.08-.03.14-.06t.1-.06q.05-.02.09-.02.06 0 .09.02.04.03.08.09l.37.59q-.27.23-.62.34-.35.12-.73.12m2.99-3.24h2.33q0-.24-.07-.45t-.2-.37q-.14-.16-.34-.25-.21-.1-.49-.1-.53 0-.84.31t-.39.86m3.15.75h-3.18q.03.39.14.68t.29.48.43.28.55.09.52-.07q.21-.07.38-.15.16-.09.28-.16t.24-.07q.15 0 .23.11l.35.45q-.2.24-.46.41-.25.16-.53.26-.28.09-.56.14-.29.03-.56.03-.54 0-1-.17-.46-.18-.8-.53-.34-.34-.53-.86-.2-.51-.2-1.19 0-.52.17-.98.17-.47.49-.81t.78-.54q.45-.2 1.03-.2.48 0 .89.16.41.15.71.45.29.3.46.73t.17.98q0 .29-.06.38-.06.1-.23.1m2.28-2.5.09.41q.15-.16.33-.29.17-.13.36-.22.19-.1.41-.15t.48-.05q.42 0 .75.14.32.15.54.4.22.26.33.62.11.35.11.78v3.27h-1.23v-3.27q0-.46-.22-.72-.21-.26-.65-.26-.32 0-.6.14-.28.15-.53.4v3.71H25.3v-5.13h.76q.24 0 .31.22m6.28 4.99q-.67 0-1.03-.38-.35-.38-.35-1.04v-2.87h-.53q-.1 0-.17-.06t-.07-.19v-.5l.83-.13.26-1.4q.02-.1.09-.16.07-.05.18-.05h.64v1.62h1.37v.87H32.5v2.78q0 .24.12.38.12.13.32.13.12 0 .2-.02.07-.03.13-.06t.1-.06q.05-.02.09-.02.06 0 .09.02.04.03.08.09l.37.59q-.27.23-.62.34-.35.12-.73.12m2.99-3.24h2.33q0-.24-.07-.45t-.2-.37q-.14-.16-.35-.25-.2-.1-.48-.1-.53 0-.84.31t-.39.86m3.15.75h-3.18q.03.39.14.68t.29.48.43.28.55.09.51-.07q.22-.07.39-.15.16-.09.28-.16t.24-.07q.15 0 .23.11l.35.45q-.2.24-.46.41-.25.16-.53.26-.28.09-.57.14-.28.03-.55.03-.54 0-1-.17-.46-.18-.8-.53-.34-.34-.53-.86-.2-.51-.2-1.19 0-.52.17-.98.17-.47.49-.81t.77-.54q.46-.2 1.04-.2.48 0 .89.16.41.15.71.45.29.3.46.73t.17.98q0 .29-.06.38-.06.1-.23.1"/></svg>