<svg xmlns="http://www.w3.org/2000/svg" width="248" height="120" viewBox="0 0 248 120"><rect width="100%" height="100%" fill="#DDDDDD"/><path fill="#999999" d="M84.03 39.75h6.18L73.57 80.96h-6.93L50 39.75h6.15q1 0 1.63.48.63.49.94 1.26l9.72 25.13q.48 1.23.92 2.7.45 1.47.84 3.06.35-1.59.75-3.06.39-1.47.88-2.7l9.66-25.13q.23-.66.9-1.2t1.64-.54m9.57 11.97h7.07v29.24H93.6zm8.04-8.52q0 .91-.37 1.71t-.98 1.39q-.62.6-1.44.96-.83.36-1.77.36-.91 0-1.72-.36-.82-.36-1.41-.96-.6-.59-.96-1.39t-.36-1.71q0-.94.36-1.77t.96-1.42q.59-.6 1.41-.96.81-.36 1.72-.36.94 0 1.77.36.82.36 1.44.96.61.59.98 1.42t.37 1.77m24.57 29.1V59.19q-1.2-1.46-2.61-2.06-1.41-.59-3.04-.59-1.59 0-2.87.59-1.29.6-2.2 1.81-.91 1.22-1.4 3.08-.48 1.87-.48 4.4 0 2.57.41 4.35.42 1.78 1.19 2.91.77 1.12 1.88 1.62t2.48.5q2.19 0 3.73-.91t2.91-2.59m0-33.69h7.04v42.35h-4.31q-1.39 0-1.76-1.28l-.6-2.82q-1.77 2.02-4.06 3.27-2.3 1.26-5.35 1.26-2.39 0-4.39-1-1.99-1-3.43-2.89-1.44-1.9-2.22-4.69-.79-2.79-.79-6.39 0-3.24.89-6.04.88-2.79 2.53-4.84 1.66-2.05 3.96-3.21 2.31-1.15 5.19-1.15 2.45 0 4.19.77t3.11 2.08zm19.55 24.37h13.28q0-1.37-.39-2.58-.38-1.21-1.15-2.13-.77-.91-1.95-1.44-1.18-.52-2.75-.52-3.05 0-4.8 1.74-1.76 1.73-2.24 4.93m17.95 4.24h-18.09q.17 2.25.79 3.89.63 1.64 1.66 2.71 1.02 1.07 2.43 1.6 1.41.52 3.12.52t2.95-.4q1.24-.39 2.17-.88.93-.48 1.62-.88.7-.4 1.36-.4.88 0 1.31.65l2.02 2.57q-1.17 1.37-2.62 2.29-1.45.93-3.03 1.49-1.59.55-3.23.78-1.63.23-3.17.23-3.05 0-5.67-1.01-2.63-1.02-4.56-3-1.94-1.98-3.05-4.9-1.12-2.92-1.12-6.77 0-2.99.97-5.63.97-2.63 2.78-4.58 1.81-1.96 4.42-3.1t5.89-1.14q2.76 0 5.1.89 2.33.88 4.02 2.58 1.68 1.69 2.63 4.16.96 2.46.96 5.63 0 1.59-.35 2.15-.34.55-1.31.55m19.87-15.96q3.25 0 5.91 1.06 2.67 1.05 4.56 2.99 1.9 1.94 2.92 4.73 1.03 2.79 1.03 6.24 0 3.48-1.03 6.27-1.02 2.8-2.92 4.76-1.89 1.97-4.56 3.02-2.66 1.06-5.91 1.06-3.28 0-5.96-1.06-2.68-1.05-4.57-3.02-1.9-1.96-2.94-4.76-1.04-2.79-1.04-6.27 0-3.45 1.04-6.24t2.94-4.73q1.89-1.94 4.57-2.99 2.68-1.06 5.96-1.06m0 24.71q3.65 0 5.4-2.45t1.75-7.18-1.75-7.21-5.4-2.48q-3.71 0-5.49 2.49-1.78 2.5-1.78 7.2t1.78 7.17q1.78 2.46 5.49 2.46"/></svg>