<svg width="108" height="40" fill="none" xmlns="http://www.w3.org/2000/svg"><g clip-path="url(#a)"><path d="M41.806 20.917h.915v4.128h3.147v1.154H42.72v6.36c0 .415.091.734.305.983.213.223.47.344.799.344.963 0 1.457-.931 1.524-2.8h.915c-.024.982-.165 1.792-.445 2.38a3.244 3.244 0 0 1-1.195 1.396 3.298 3.298 0 0 1-1.763.491c-.56 0-1.055-.12-1.476-.37-.42-.248-.75-.612-1.012-1.078a3.322 3.322 0 0 1-.378-1.569v-6.162h-1.69v-1.155c1.031 0 1.855-.395 2.416-1.078.56-.682.939-1.697 1.08-3.017M13.771 33.127c.495 1.5.915 2.507 1.318 3.043.256.344.543.517.823.517.256 0 .47-.096.61-.32.14-.222.232-.663.28-1.377h1.031c0 1.327-.354 2.38-1.012 3.145-.659.765-1.476 1.154-2.488 1.154-1.013 0-1.787-.344-2.373-1.033-.585-.689-.963-1.914-1.128-3.68a16.34 16.34 0 0 1-1.08.197 8.75 8.75 0 0 1-1.152.076c-2.415 0-4.482-.886-6.129-2.653-1.664-1.767-2.488-4-2.488-6.73 0-2.73.824-4.963 2.488-6.73 1.64-1.767 3.708-2.654 6.172-2.654 2.464 0 4.555.887 6.245 2.654 1.689 1.767 2.536 3.98 2.536 6.583 0 1.595-.28 3.043-.866 4.3-.61 1.25-1.524 2.43-2.793 3.508m-1.103-2.922c.378-1.473.585-3.17.585-5.084 0-1.913-.189-3.49-.585-4.618-.397-1.104-.94-1.94-1.64-2.456-.702-.542-1.477-.785-2.373-.785-.896 0-1.69.268-2.397.836-.7.542-1.195 1.327-1.524 2.31-.421 1.396-.634 3.093-.634 5.109 0 2.43.305 4.344.939 5.722.049-1.155.396-2.06 1.055-2.724.658-.663 1.573-.982 2.726-.982.847 0 1.573.223 2.207.663.634.44 1.195 1.13 1.64 2.016m-1.829 2.724.025-.664c0-1.18-.232-2.086-.683-2.679-.446-.612-1.031-.906-1.738-.906-.61 0-1.129.243-1.574.734-.445.491-.658 1.104-.658 1.818 0 .663.213 1.301.61 1.914.61.319 1.195.465 1.804.465.446 0 .848-.05 1.22-.172a3.21 3.21 0 0 0 .988-.517" fill="#000"/><path d="m17.352 25.019 4.274-.243v6.654c0 .612.165 1.103.47 1.474.33.37.726.542 1.244.542.726 0 1.293-.294 1.714-.906.42-.587.634-1.302.634-2.112v-3.266c0-.395-.092-.689-.305-.886-.213-.198-.494-.294-.848-.294h-.47V25l4.318-.243v8.102c0 .37.116.638.33.861.213.198.494.319.847.319h.445v1.008l-3.97.121a11.707 11.707 0 0 1-.28-2.284c-.659.887-1.293 1.5-1.903 1.844-.61.37-1.244.542-1.902.542-.659 0-1.196-.147-1.64-.44-.446-.294-.8-.734-1.056-1.352-.256-.62-.396-1.378-.396-2.259v-3.98c0-.44-.092-.734-.305-.932-.213-.197-.61-.293-1.195-.293v-.982l-.006-.013Zm16.69-.542A6.09 6.09 0 0 1 37 25.21c.89.491 1.55 1.104 1.994 1.888.445.785.659 1.716.659 2.826 0 1.742-.561 3.094-1.714 4.026-1.152.931-2.439 1.397-3.872 1.397a5.604 5.604 0 0 1-2.793-.715c-.848-.491-1.5-1.129-1.946-1.939a5.665 5.665 0 0 1-.683-2.75c0-1.543.519-2.851 1.55-3.878.987-1.078 2.274-1.595 3.847-1.595m.05 1.008c-.702 0-1.27.32-1.69.982-.42.664-.634 1.793-.634 3.439 0 1.646.213 2.87.634 3.508.42.638.988.957 1.69.957.7 0 1.316-.319 1.737-.982.445-.663.659-1.818.659-3.438s-.214-2.826-.659-3.49c-.42-.663-1.012-.982-1.738-.982m11.782-.466 4.25-.198v8.497c0 .224.074.396.214.517s.354.198.634.198h.634v1.008H45.88V34.02h.634c.354 0 .586-.077.726-.243.14-.165.214-.44.214-.86v-5.793c0-.37-.092-.638-.305-.836-.14-.146-.47-.12-.824-.12h-.42v-1.156h-.025l-.006-.006Zm2.628-5.773c.446 0 .848.172 1.171.517.324.344.494.759.494 1.224 0 .492-.164.906-.494 1.225a1.572 1.572 0 0 1-1.17.517c-.47 0-.867-.172-1.171-.517a1.723 1.723 0 0 1-.494-1.225c0-.49.164-.886.494-1.224a1.502 1.502 0 0 1 1.17-.517Zm14.081 5.773 4.25-.198v8.497c0 .224.074.396.214.517s.354.198.634.198h.635v1.008h-5.727V34.02h.635c.353 0 .585-.077.725-.243.14-.165.214-.44.214-.86v-5.793c0-.37-.092-.638-.305-.836-.14-.146-.47-.12-.823-.12h-.421v-1.156h-.025l-.006-.006Zm2.629-5.773c.445 0 .847.172 1.17.517.324.344.495.759.495 1.224 0 .492-.165.906-.495 1.225a1.572 1.572 0 0 1-1.17.517 1.5 1.5 0 0 1-1.171-.517 1.723 1.723 0 0 1-.494-1.225c0-.49.165-.886.494-1.224.33-.338.701-.517 1.17-.517Z" fill="#000"/><path d="m56.284 19.176 4.744-.198v13.09c0 .663.049 1.13.116 1.352.092.224.214.396.397.492.182.095.518.12 1.03.12v1.009l-3.921.121-.28-1.94c-.61.81-1.153 1.379-1.623 1.646-.494.268-1.103.415-1.83.415-1.316 0-2.371-.465-3.189-1.378-.823-.906-1.244-2.162-1.244-3.732 0-1.741.445-3.119 1.318-4.127.872-1.008 1.945-1.524 3.238-1.524.701 0 1.317.146 1.854.465.536.32 1.03.836 1.475 1.544v-4.542c0-.542-.048-.931-.14-1.155-.091-.242-.213-.395-.378-.49-.165-.097-.494-.122-.988-.122h-.56v-1.059h-.025l.006.013Zm-.33 6.679c-.798 0-1.384.37-1.762 1.078-.33.587-.47 1.524-.47 2.826 0 1.078.092 1.869.257 2.405.189.542.42.931.75 1.18.33.268.701.395 1.128.395.701 0 1.244-.319 1.665-.93.56-.811.847-1.844.847-3.12 0-1.18-.231-2.112-.725-2.8-.47-.69-1.03-1.034-1.69-1.034Zm22.936 7.93.42.758c-.42.294-.798.517-1.127.613a3.15 3.15 0 0 1-1.08.172c-.585 0-1.055-.121-1.433-.396-.354-.268-.683-.733-.988-1.473-.701.714-1.317 1.205-1.878 1.473-.543.268-1.17.396-1.878.396-.964 0-1.714-.223-2.257-.69-.542-.465-.798-1.058-.798-1.766 0-1.078.493-1.94 1.5-2.577.799-.517 2.537-1.034 5.232-1.544v-1.448c0-.568-.19-1.034-.543-1.397-.353-.364-.847-.542-1.457-.542-.47 0-.866.095-1.22.319-.232.12-.354.268-.354.395 0 .077.05.172.14.319.19.319.281.638.281.957 0 .395-.116.714-.378.957-.262.242-.585.37-1.012.37-.445 0-.823-.122-1.08-.396-.28-.268-.396-.612-.396-1.033 0-.69.354-1.301 1.08-1.818.89-.664 1.993-.983 3.335-.983 1.012 0 1.878.173 2.677.491.494.198.89.568 1.22 1.079.305.516.47 1.154.47 1.913v5.085c0 .395.073.663.213.835.14.172.33.243.56.243.141 0 .397-.096.727-.32m-4.25-4.101c-1.458.198-2.44.517-2.959.957-.518.44-.774 1.008-.774 1.697 0 .49.116.886.354 1.154.238.268.585.396 1.012.396.683 0 1.244-.243 1.69-.76.444-.516.682-1.205.682-2.06v-1.378l-.006-.006Z" fill="#000"/><path d="M91.312 34.033v1.008h-5.75v-1.008h.61c.329 0 .56-.077.7-.242.165-.173.233-.415.233-.734v-4.344c0-.734-.165-1.302-.494-1.697a1.568 1.568 0 0 0-1.269-.587c-.701 0-1.293.268-1.738.836-.445.567-.683 1.378-.683 2.456v3.336c0 .319.073.568.232.734a.826.826 0 0 0 .61.242h.725v1.008H78.5v-1.008h.775c.304 0 .518-.077.682-.242.165-.166.232-.415.232-.734v-5.939c0-.344-.116-.612-.33-.81-.212-.198-.517-.294-.865-.294h-.378v-.93l3.988-.224c.14.612.256 1.352.33 2.188.56-.785 1.152-1.378 1.786-1.767.634-.39 1.293-.587 1.994-.587.964 0 1.69.344 2.257.982.542.664.823 1.595.823 2.775v4.638c0 .344.073.612.232.759.158.147.396.242.75.242h.518v-.05l.018-.007Zm4.202-9.55c1.055 0 2.043.243 2.958.734.89.491 1.549 1.104 1.994 1.888.445.785.659 1.716.659 2.826 0 1.742-.562 3.094-1.714 4.025-1.153.932-2.44 1.397-3.873 1.397a5.605 5.605 0 0 1-2.792-.714c-.848-.491-1.5-1.129-1.946-1.94a5.664 5.664 0 0 1-.683-2.749c0-1.543.518-2.851 1.55-3.878.987-1.078 2.274-1.595 3.847-1.595m.049 1.008c-.701 0-1.269.319-1.69.982-.42.664-.633 1.793-.633 3.439 0 1.646.213 2.87.634 3.508.42.638.988.957 1.689.957.701 0 1.317-.319 1.738-.982.445-.664.659-1.818.659-3.439 0-1.62-.214-2.826-.66-3.489-.42-.663-1.011-.982-1.737-.982m-75 11.131h.304l.683.931v-.931h.33v1.525h-.28l-.702-.983v.983h-.33V36.61h-.006Zm1.781.76c0-.441.33-.785.774-.785.445 0 .775.344.775.784 0 .44-.33.785-.775.785-.47 0-.774-.345-.774-.785Zm1.22 0c0-.269-.19-.492-.446-.492s-.445.223-.445.466c0 .267.19.49.445.49.256 0 .445-.197.445-.465Zm.796-.76h.304l.683.931v-.931h.33v1.525h-.28l-.702-.983v.983h-.33V36.61h-.006Zm2.64 0h.683c.189 0 .33.05.42.147a.493.493 0 0 1 .117.344c0 .242-.116.396-.305.466l.353.542h-.378l-.305-.491h-.256v.491H27v-1.5Zm.659.733c.164 0 .256-.095.256-.223 0-.146-.092-.223-.256-.223h-.33v.44h.33v.006Zm1.055-.733h.329v1.525h-.33V36.61Zm.786.76c0-.441.305-.785.774-.785.281 0 .446.095.586.242l-.213.242c-.116-.095-.232-.172-.379-.172-.256 0-.42.223-.42.466 0 .268.164.49.42.49.165 0 .256-.076.378-.171l.214.223c-.14.172-.33.268-.61.268-.445-.026-.75-.37-.75-.81v.006Zm1.79-.76h1.103v.293h-.775v.32h.683v.293h-.683v.319h.8v.293h-1.129v-1.525.007Zm1.46 0h.354l.378 1.078.378-1.078h.354l-.586 1.544h-.28l-.586-1.544h-.012Zm1.875 0h1.104v.293h-.775v.32h.683v.293h-.683v.319h.8v.293h-1.129v-1.525.007Zm2.883-.026h.305l.634 1.544h-.329l-.14-.344h-.61l-.14.344h-.33l.61-1.544Zm.33.906-.19-.49-.189.49h.379Zm.987-.886h.33v1.224h.725v.294h-1.055v-1.525.007Zm1.336.759c0-.44.305-.785.774-.785a.74.74 0 0 1 .586.242l-.214.243c-.115-.096-.231-.172-.378-.172-.256 0-.42.223-.42.465 0 .268.164.492.42.492.165 0 .256-.077.378-.173l.214.224c-.14.172-.33.267-.61.267a.799.799 0 0 1-.75-.81v.007Zm1.769.108v-.886h.329v.86c0 .243.116.37.305.37s.305-.12.305-.37v-.886h.33v.861c0 .466-.257.69-.635.69-.397.05-.634-.173-.634-.639Zm1.773-.861h.305l.683.931v-.931h.33v1.525h-.281l-.702-.983v.983h-.329V36.61h-.006Zm2.633 0h1.128v.293h-.799v.32h.702v.293h-.702v.587h-.33v-1.5.007Zm1.573 0h.33v1.525h-.33V36.61Zm.872 0h.305l.683.931v-.931h.33v1.525h-.281l-.701-.983v.983h-.33V36.61h-.006Zm2.322-.026h.305l.634 1.544h-.33l-.14-.344h-.634l-.14.344h-.33l.635-1.544Zm.354.906-.19-.49-.188.49h.378Zm.981-.88h.304l.683.931v-.931h.33v1.525h-.28l-.702-.983v.983h-.33V36.61h-.005Zm1.789 1.276.798-.983h-.774v-.293h1.195v.242l-.799.983h.8v.293h-1.22v-.242Zm1.713-1.276h.33v1.525h-.33V36.61Zm1.385-.026h.304l.635 1.544h-.33l-.14-.344h-.61l-.14.344h-.33l.61-1.544Zm.329.906-.19-.49-.188.49h.378Zm.988-.886h.353l.379.638.378-.638h.353v1.524h-.329V37.12l-.42.664-.397-.638v.982h-.305v-1.524h-.012Zm1.983.006h1.104v.293h-.775v.32h.683v.293h-.683v.319h.8v.293h-1.129v-1.525.007Zm1.602 0h.305l.683.931v-.931h.329v1.525h-.28l-.702-.983v.983h-.33V36.61h-.005Zm2.156.293h-.445v-.319h1.22v.32h-.446v1.224h-.33v-1.225Zm1.077.467c0-.441.33-.785.775-.785.446 0 .775.344.775.784 0 .44-.33.785-.775.785-.47 0-.774-.345-.774-.785Zm1.22 0c0-.269-.189-.492-.445-.492s-.445.223-.445.466c0 .267.19.49.445.49.257 0 .446-.197.446-.465Zm1.601-.76h.586c.353 0 .56.223.56.542 0 .345-.255.542-.585.542h-.231v.466h-.33v-1.55Zm.586.759c.164 0 .256-.096.256-.223 0-.147-.092-.224-.256-.224h-.256v.466l.256-.025v.006Zm.961.102v-.886h.33v.86c0 .243.115.37.304.37.19 0 .305-.12.305-.37v-.886h.33v.861c0 .466-.257.69-.635.69-.396.05-.634-.173-.634-.639Zm1.789-.861h.683c.165 0 .305.05.378.147.073.076.092.146.092.268a.339.339 0 0 1-.19.319c.165.076.281.172.281.37 0 .267-.213.414-.543.414h-.7v-1.525.007Zm.61.612c.14 0 .232-.05.232-.172 0-.096-.073-.147-.214-.147h-.329v.32h.311Zm.091.613c.14 0 .232-.051.232-.172 0-.096-.073-.173-.231-.173h-.379v.345h.379Zm.987-1.225h.683c.164 0 .305.05.378.147.073.076.091.146.091.268a.339.339 0 0 1-.189.319c.165.076.28.172.28.37 0 .267-.213.414-.542.414h-.701v-1.525.007Zm.61.612c.14 0 .231-.05.231-.172 0-.096-.073-.147-.213-.147h-.33v.32h.312Zm.091.613c.14 0 .232-.051.232-.172 0-.096-.073-.173-.232-.173h-.378v.345h.378ZM75 36.61h.33v1.225h.725v.293H75v-1.525.007Zm1.5 0h.33v1.525h-.33V36.61Zm.797.76c0-.441.305-.785.774-.785a.74.74 0 0 1 .586.242l-.214.242c-.115-.095-.231-.172-.378-.172-.256 0-.42.223-.42.466 0 .268.164.49.42.49.165 0 .256-.076.378-.171l.214.223c-.14.172-.33.268-.61.268-.445-.026-.75-.37-.75-.81v.006Zm1.672 0c0-.441.329-.785.774-.785s.775.344.775.784c0 .44-.33.785-.775.785a.764.764 0 0 1-.774-.785Zm1.22 0c0-.269-.19-.492-.446-.492s-.445.223-.445.466c0 .267.19.49.445.49.256 0 .445-.197.445-.465Zm22.558-6.31 1.689-.076v3.387c0 .096.024.172.091.223.049.051.141.077.256.077h.257v.395h-2.3v-.395h.257c.14 0 .231-.026.28-.096a.571.571 0 0 0 .092-.344v-2.31a.525.525 0 0 0-.116-.344c-.067-.077-.189-.121-.33-.121h-.164l-.025-.396h.013Zm1.03-2.309c.189 0 .329.076.47.198.14.146.189.293.189.49 0 .199-.073.37-.189.492a.592.592 0 0 1-.47.198.64.64 0 0 1-.469-.198.644.644 0 0 1-.189-.491c0-.198.073-.37.189-.491a.623.623 0 0 1 .469-.198Z" fill="#000"/><path d="M101.784 33.784c.189 0 .329.077.469.198.14.147.189.293.189.491s-.073.37-.189.491a.589.589 0 0 1-.469.198.645.645 0 0 1-.47-.198.648.648 0 0 1-.189-.49c0-.199.073-.37.189-.492a.645.645 0 0 1 .47-.198Z" fill="#A83946"/><path d="M106.234 29.44h.354v1.62h1.244v.466h-1.244v2.526c0 .172.049.293.116.395.067.103.189.147.329.147.378 0 .586-.37.61-1.103h.354c0 .395-.074.714-.189.956a1.4 1.4 0 0 1-.47.568 1.402 1.402 0 0 1-.701.198 1.13 1.13 0 0 1-.586-.147.975.975 0 0 1-.396-.44 1.418 1.418 0 0 1-.14-.612v-2.43h-.683v-.466c.42 0 .725-.147.963-.415.232-.319.378-.715.445-1.25M36.781 0h15.917l.189 6.507h-1.104c-.19-2.016-.634-3.388-1.336-4.172-.7-.76-1.786-1.155-3.238-1.155h-2.677c-.396 0-.683.077-.847.243-.19.172-.257.414-.257.733v6.31h.964c1.945 0 3.049-1.207 3.354-3.637h1.08v8.714h-1.08c-.025-.931-.19-1.671-.445-2.207a3.128 3.128 0 0 0-1.08-1.276c-.47-.319-.988-.466-1.597-.466h-1.22v6.877c0 .37.091.638.28.81.257.243.586.37.964.37h1.714v1.18h-9.556v-1.154h1.597c.379 0 .659-.096.866-.32.214-.197.305-.465.305-.784V2.163c0-.37-.091-.613-.305-.76-.189-.146-.61-.223-1.22-.223h-1.243L36.78 0Z" fill="#000"/><path d="m59.201 17.236.42.785c-.42.293-.798.517-1.127.612-.33.122-.702.173-1.104.173-.586 0-1.055-.122-1.433-.396-.354-.268-.701-.759-.988-1.474-.701.715-1.317 1.225-1.878 1.474-.561.268-1.171.396-1.879.396-.963 0-1.713-.224-2.256-.69-.543-.465-.823-1.058-.823-1.766 0-1.078.494-1.94 1.5-2.603.799-.517 2.561-1.034 5.257-1.544v-1.448c0-.568-.19-1.033-.543-1.397-.354-.364-.848-.542-1.458-.542-.47 0-.866.096-1.22.319-.23.147-.353.268-.353.414 0 .077.049.173.14.32.19.318.28.637.28.956 0 .396-.115.715-.377.983-.256.242-.586.37-1.013.37-.445 0-.823-.122-1.079-.396-.28-.268-.396-.612-.396-1.033 0-.69.353-1.302 1.08-1.844.89-.663 2.018-.982 3.353-.982 1.012 0 1.903.172 2.677.491.494.198.915.568 1.22 1.078.305.51.47 1.155.47 1.914v5.11c0 .395.073.663.213.835.14.172.33.243.56.243.166-.026.422-.147.727-.37m-4.275-4.102c-1.458.198-2.464.517-2.982.957-.519.44-.775 1.008-.775 1.716 0 .49.116.886.378 1.154.232.268.586.396 1.03.396.684 0 1.245-.243 1.69-.76.445-.516.683-1.205.683-2.085v-1.378h-.024ZM67.574 4.28h.915v4.128h3.17v1.154h-3.17v6.386c0 .414.091.759.305.982.213.223.47.345.823.345.963 0 1.476-.932 1.524-2.8h.915c-.024 1.007-.164 1.792-.445 2.404-.28.612-.683 1.078-1.195 1.397a3.284 3.284 0 0 1-1.763.491c-.56 0-1.079-.12-1.5-.37-.42-.248-.75-.612-1.012-1.078a3.322 3.322 0 0 1-.378-1.569V9.562h-1.714V8.408c1.03 0 1.854-.396 2.44-1.078.585-.69.939-1.697 1.079-3.043" fill="#000"/><path d="M61.035 4.3h.914v4.127h3.172v1.155h-3.172v6.385c0 .415.092.76.305.983.214.223.47.344.824.344.963 0 1.475-.931 1.524-2.8h.915c-.024 1.008-.165 1.792-.445 2.405-.28.612-.683 1.078-1.196 1.397a3.284 3.284 0 0 1-1.762.49c-.561 0-1.08-.12-1.5-.37-.42-.248-.75-.612-1.012-1.077a3.32 3.32 0 0 1-.378-1.57V9.582H57.51V8.427c1.03 0 1.854-.395 2.44-1.078.56-.689.938-1.697 1.078-3.043m15.374 3.585c1.08 0 2.067.243 2.958.734.89.491 1.573 1.129 2.018 1.914.446.784.659 1.716.659 2.825 0 1.768-.561 3.12-1.714 4.051-1.152.932-2.439 1.423-3.896 1.423-1.031 0-1.97-.243-2.818-.734-.847-.491-1.5-1.129-1.97-1.965-.445-.81-.682-1.741-.682-2.774 0-1.544.518-2.852 1.549-3.905 1.03-1.052 2.347-1.569 3.896-1.569Zm.073 1.034c-.7 0-1.268.319-1.689.982-.42.663-.634 1.818-.634 3.464s.213 2.896.634 3.534c.421.638.988.982 1.69.982.7 0 1.317-.344 1.762-1.008.445-.663.658-1.818.658-3.438s-.213-2.851-.658-3.509c-.445-.688-1.03-1.007-1.763-1.007Zm-60.702-.096 4.275-.198v8.548c0 .224.074.415.214.543.14.127.353.197.634.197h.659v1.008H15.78V17.92h.634c.353 0 .585-.076.725-.242.14-.166.214-.44.214-.861v-5.818c0-.37-.092-.638-.305-.861-.213-.198-.494-.294-.848-.294h-.42V8.835l-.007-.006Zm2.629-5.792c.47 0 .847.172 1.17.516.324.326.5.785.495 1.25a1.74 1.74 0 0 1-.494 1.251c-.33.344-.726.517-1.171.517a1.59 1.59 0 0 1-1.196-.517 1.723 1.723 0 0 1-.493-1.225 1.74 1.74 0 0 1 .493-1.25 1.53 1.53 0 0 1 1.196-.542Z" fill="#000"/><path d="m21.313 2.972 4.506-.242v14.29c0 .242.073.465.232.612.158.146.378.223.683.223h.61v1.008h-5.8v-1.008h.659a.977.977 0 0 0 .683-.242c.14-.173.213-.415.213-.76V5.084c0-.37-.091-.637-.28-.835-.19-.198-.445-.293-.775-.293h-.725v-.983h-.006Z" fill="#000"/><path d="M25.845 5.55c-.256-.096-.585.025-.963.44-.378.396-.683.931-.94 1.595-.255.689-.377 1.301-.353 1.843 0 .568.165.887.42 1.008a.274.274 0 0 0 .141.026c.232.025.494-.121.799-.466.354-.395.659-.931.915-1.595.256-.663.378-1.275.378-1.843 0-.396-.073-.69-.214-.861a.355.355 0 0 0-.189-.147m6.928 4.05s-.988-1.524-.775-1.715c.232-.198.446-.81 1.171-.568 0 0 .75-.37 1.08-.198l.75.172.847.638.89.81s.562.052.61.243l.116.542s.519.172.494.836c0 0 .378.81-1.152 2.162l-.659.543.19.146 1.03.543.518.146.75 2.035h.28l.422 1.06v.395l.28 1.473-2.275 3.018v.37l2.702 2.404.116.173s-3.921 2.75-5.8 2.628l-2.982-2.947-2.299-3.19 4.342-2.896-1.64-2.481-.116.637-1.128.543-.543-.517-.89.517-1.013-.224-.823-2.379-.14-1.448-.305-1.206-.091-.242.231-.32.519-.05.445.076.213.077.256-.096.256.32-.14.465.445-.051v.491l-.256.396-.396.076 1.03 2.137.116-.906 1.409-.49.61-.122.963-.242.14.319.543-.715.305-.096v-.146l-.914-.198-.19-.517.684-1.352-.543-.172.305-.887.012-.02Z" fill="#fff"/><path d="m37.752 18.264-.025-.051s-.049.025-.073.025h-.025s-.024 0-.048.026h-.092s-.048-.026-.073-.026c-.024-.025-.049-.025-.091-.025a.439.439 0 0 0-.092-.077c0 .026 0 .077.025.121v.415c0 .096.024.223.048.319 0 .076 0 .121.025.198.024.076.024.12.024.172.025.05.025.095.025.172.024-.05.048-.096.048-.147.025-.05.05-.095.05-.172.023-.05.023-.096.048-.121 0-.026.024-.051.024-.077.049-.12.073-.242.092-.344l.024-.026s.025-.05.025-.076c0-.026.024-.051.048-.096l.025-.05s.024-.026.024-.052v-.025l.025-.026-.025-.026s0-.025-.024-.05m-3.641-8.3s-.116-.076-.28-.121c-.05-.026-.092-.051-.092-.077h-.024c-.05 0-.092-.025-.116-.025 0 0-.025.025-.025.051-.024 0-.048.051-.091.121l-.049.121s0 .051.025.051l.048.051c.05.051.092.077.165.077.024 0 .049 0 .116-.026.073 0 .116-.025.165-.025 0-.026-.074-.051-.14-.077-.092-.025-.141-.05-.165-.076h-.025l.025-.026c.024 0 .048.026.073.026.091 0 .14 0 .189-.026 0 0 .024 0 .024.026l.354.147h.024l-.189-.198m.092-1.353a10.85 10.85 0 0 1 1.927 1.768c.164.172.28.37.353.567.092.243.14.491.116.76-.024.146-.048.318-.091.49-.024.096-.073.173-.092.269v.025s.074-.051.092-.077c.47-.688.354-1.448-.354-2.309-.024-.025-.024-.05-.049-.076l-.28-.294v-.025A14.532 14.532 0 0 0 33.69 7.77c-.354-.223-.683-.32-.963-.243a.774.774 0 0 0-.305.243c-.116.242-.116.44 0 .638h.024l.445.887c.073-.492.214-.785.445-.932.19-.147.519-.076.89.223ZM33.03 10.43c-.048 0-.073.026-.073.051 0 0 0 .026.025.051.024.026.048.026.048.026.05 0 .074-.026.074-.096 0-.026-.025-.026-.074-.026m0-.44.025-.025v-.077s0-.05-.049-.05c-.024-.026-.049-.026-.091-.026-.025 0-.05.025-.074.025 0 0-.024.026-.024.051 0 .026-.024.051-.024.077l.024.025v.051h.092l-.025.051s0 .026.025.026c.036 0 .067-.026.091-.051.024-.051.024-.077.024-.077m1.623-.465a.368.368 0 0 0-.14-.096 3.35 3.35 0 0 0-.379-.077c-.354-.05-.518-.025-.518.096v.026s.024.025.049.025c.024 0 .024.026.048.026h.092s.049-.051.091-.051h.421s.025 0 .049.025h.049c.073.026.116.051.14.051h.091v-.025" fill="#000"/><path d="M25.727 5.92c-.232-.096-.494.025-.823.37-.305.344-.586.81-.799 1.378-.213.587-.33 1.103-.305 1.569 0 .491.14.76.354.861.036.02.08.026.116.026.213.025.42-.122.701-.396.305-.344.561-.81.774-1.378.214-.587.33-1.103.33-1.569 0-.345-.073-.587-.19-.734a.62.62 0 0 0-.164-.12" fill="#A83946"/><path d="M32.975 9.747s.025 0 .025-.025c0-.026 0-.051-.05-.077a.189.189 0 0 0-.09-.05v.095l.048.051h.073m3.171 1.327s-.073.025-.115.05c-.092.052-.14.052-.165.052v.025c0 .051 0 .077.049.077.024 0 .048-.026.091-.026.025-.025.073-.025.073-.025.073 0 .116.051.165.121a.311.311 0 0 1 .024.147c0 .05-.024.095-.073.147-.049.05-.073.076-.073.095 0 .02 0 .026.024.026.05-.026.074-.026.092-.051v.025c.049-.025.091-.095.116-.172 0-.051.024-.076.024-.121v-.096c0-.05 0-.121-.049-.172-.024-.051-.091-.096-.189-.096m-.305.32h-.048l-.025.025-.024.025v.026s.024.025.024.05c.025.026.049.052.049.077.024 0 .024.026.024.051v.026c.025.076.05.121.074.172.048 0 .091-.076.091-.223-.024-.147-.091-.223-.165-.223v-.007Zm-.375.714c-.116-.026-.19-.052-.214-.077a.196.196 0 0 1-.049-.121c-.024-.026-.024-.051-.024-.077v-.05s-.092.05-.165.171c-.073.122-.116.198-.116.268s.05.122.14.122c.092 0 .19-.026.33-.051.14-.051.232-.077.28-.122-.024 0-.073 0-.09-.025l-.092-.051v.013Zm1.804-.664c.092 0 .14-.025.19-.05a.204.204 0 0 0 .048-.096c0-.026-.024-.051-.024-.077-.025-.025-.073-.025-.116 0V11.1s-.024-.096-.049-.121c-.091-.096-.164-.026-.164.172 0 .198.048.293.115.293Zm-3.378-3.757.073.077s.073.05.116.076l.726.568.256.242c.116.096.189.198.256.224.091.076.19.172.256.242.024.051.073.121.14.223a.955.955 0 0 0 .092.198c.024.051.073.077.091.096v.025l.28.294s.025.05.05.076l.048.051c.092.051.19.121.281.198.189.121.28.319.28.587.025.242.05.344.116.344.05 0 .092-.197.073-.612a.692.692 0 0 0-.14-.415c-.073-.095-.232-.242-.518-.414-.14-.096-.256-.243-.378-.415-.14-.198-.232-.344-.33-.415l-.939-.835a5.853 5.853 0 0 0-1.152-.734s-.025 0-.025.051c.025.051.116.147.33.294m.048 13.409-.682.465a19.826 19.826 0 0 0 3.567 3.853c.024-.025.073-.05.091-.076.19-.121.379-.268.586-.396a21.022 21.022 0 0 1-3.568-3.853M28.24 11.98s.024 0 .049.026v-.096c0-.223-.049-.37-.116-.44.073.147.091.319.073.517m5.519 6.876-4.013 2.654.47.734 4.012-2.654-.469-.734Zm.659 1.104L30.5 22.621l.14.223 3.922-2.654-.14-.223Zm-3.007 2.8-.585.396a25.39 25.39 0 0 0 3.683 3.808c.165-.12.33-.223.47-.319-1.41-1.205-2.604-2.507-3.568-3.878m1.622-1.034c-.213.122-.396.268-.634.415.964 1.378 2.159 2.654 3.567 3.853.05-.025.074-.05.116-.076.19-.122.354-.224.519-.345a21.908 21.908 0 0 1-3.568-3.853" fill="#000"/><path d="M40.232 24.553c-.024-.05-.049-.096-.091-.121a27.764 27.764 0 0 1-2.233-1.888c-.024-.026-.048-.051-.073-.051l-.073-.077s-.049-.025-.073-.05c-.024-.026-.049-.026-.049-.052-.024-.026-.049-.026-.073-.051-.024-.026-.049-.051-.073-.051l-.073-.077s-.025-.05-.05-.05c.025-.026.05-.052.074-.052.024-.025.049-.05.073-.05l.025-.026s.024-.026.024-.051c.024-.026.024-.051.049-.077 0-.05.024-.076.024-.096v-.025s.049-.025.049-.051l.049-.051s.049-.026.073-.051c1.104-.982 1.69-1.888 1.762-2.698v-.243l-.231-1.104v-.05l-.025-.052v-.05s.049-.052.073-.096a.705.705 0 0 0 .05-.568l-.165-.587c-.05-.198-.14-.319-.257-.37h-.024s-.049-.025-.073-.025c-.025 0-.073-.026-.092-.026-.024-.025-.024-.076-.048-.076-.025-.026-.025-.051-.05-.096 0-.026-.024-.051-.024-.077 0-.025 0-.025-.024-.05 0 0-.024-.026-.024-.052-.025-.025-.025-.05-.025-.05 0-.026-.024-.026-.024-.026-.214-.492-.47-.932-.75-1.397v-.026s-.025-.05-.049-.05c-.165-.122-.378-.224-.61-.345-.024-.026-.049-.026-.073-.026-.024-.025-.049-.025-.092-.025-.024 0-.048-.026-.073-.026-.024 0-.049 0-.073-.025l-.024-.026s-.05-.026-.074-.026c-.024 0-.048-.025-.073-.025h-.091s-.049-.026-.073-.026v-.095l-.025-.026c-.024-.05-.024-.076-.073-.076l-.024-.026v-.025s-.025-.026-.049-.026-.049-.025-.073-.05l-.025-.026c.05 0 .074 0 .092-.026.024 0 .024-.025.049-.05l.024-.026s.049-.026.073-.052c.025-.025.049-.05.073-.05.025 0 .05-.026.074-.052.024-.025.024-.05.048-.076a5.98 5.98 0 0 0 .964-.982s.024 0 .024-.026c.378-.663.378-1.276 0-1.87-.024 0-.024-.025-.024-.025-.049-.05-.092-.12-.14-.172-.074-.466-.28-.714-.683-.733-.47-.44-1.031-.862-1.64-1.25-.544-.396-1.056-.543-1.599-.466h-.024s-.024 0-.049.025h-.073s0 .026-.024.026c-.025 0-.074 0-.092.025-.018.026-.073.026-.091.026-.025.025-.073.025-.092.05h-.024c-.397-.076-.75.052-1.08.415-.213.268-.189.613.074 1.008l.47.887s-.025.076-.025.096v.223s0 .025-.025.025c0 .026-.024.051-.048.077v.025s-.025.051-.025.077c0 .025-.024.051-.024.077 0 .025-.025.05-.025.076v.077l-.231-.026-5.964-4.714a.872.872 0 0 0-.28-.198c-.33-.147-.727 0-1.172.491-.378.415-.701.983-.988 1.716-.256.715-.396 1.378-.378 1.965.025.69.19 1.104.561 1.225.073.025.116.051.19.051h.115s.049 0 .073-.026l1.458.224v.076s.024 0 .024.026c0 0 .025.025.025.05l.049.052s.024 0 .048.025h.049s.024 0 .049-.025l.024.025c.073.37.165.638.354.836 0 0 .024 0 .024.026.073.05.14.12.232.146 0 0 .024.026.049.026.024 0 .024.025.049.025v.051s0 .051.024.077c0 .025 0 .051.024.096v.025c.074.268.165.491.256.612 0 .077.025.122.05.224 0 .344.09.957.304 1.913.116.466.232.862.378 1.18 0 .026.025.052.05.077.023.026.023.051.048.077 0 .025.024.05.049.096.024.025.049.05.049.076.024.025.024.051.048.077.025.025.025.05.049.076l.165.172.024.026s.024 0 .024.025l.025.026h.024l.049.05h.024l.14.078h.025s.024.025.049.025c.024 0 .024 0 .049.026h.189s.073 0 .116-.026c.048 0 .073-.026.091-.026.018 0 .073 0 .091-.025.025 0 .05-.025.092-.025.024-.026.049-.026.091-.026.025-.026.05-.026.092-.026.049-.025.073-.025.116-.05.024 0 .049-.026.073-.052.024 0 .049-.025.073-.025.025-.026.049-.026.073-.051.025-.026.05-.026.092-.051.024 0 .049-.026.073-.051h.024l.14-.077.025.026.024.025s.05.026.074.051c.024 0 .048.026.091.051.073.026.14.051.213.051.05 0 .116 0 .14-.025.025 0 .05 0 .074-.026h.049l.585-.242h-.024c.091-.051.189-.077.256-.147a.415.415 0 0 0 .073-.096l.073-.146c0 .076 0 .121.025.172 0 .051.024.096.024.121.14.715.28 1.327.42 1.818v.026s.025.05.025.076c0 .026 0 .026.025.051v.026s.024.05.024.076v.026s.024.051.024.076c.025.026.025.052.025.077-.025.026-.049.026-.073.051-.025.026-.05.026-.074.051-.024 0-.048.026-.073.051h-.024s-.025.026-.049.026c0 0-.024 0-.024.025-.025 0-.025.026-.05.026 0 .025-.023.025-.048.05l-.024.026s-.05.026-.05.051h-.023s-.05.026-.074.051a23.57 23.57 0 0 1-2.793 1.716c-.024.026-.073.051-.091.096-.024.026-.024.076-.024.121 0 .026.024.077.048.121 1.738 2.629 3.543 4.664 5.373 6.137h.024s.025.026.049.026.049.025.073 0h.025c2.091-.415 3.988-1.353 5.677-2.775.049-.026.049-.077.073-.122.025.052.025 0 0-.05M25.883 8.375c-.256.689-.561 1.224-.94 1.62-.28.319-.56.491-.774.465-.049 0-.091 0-.14-.025-.256-.121-.378-.44-.378-.982-.025-.568.116-1.18.354-1.87.256-.688.56-1.224.939-1.62.353-.395.658-.516.914-.414a.285.285 0 0 1 .165.12h.024c.14.173.214.44.214.81 0 .588-.116 1.207-.378 1.89M38.7 15.934c.19-.051.305.025.354.223l.165.587c.048.172.024.345-.116.466h-.025a.492.492 0 0 1-.189.12l-.256.122-.799.396c-.048.025-.091.05-.14.05-.165.052-.28.026-.354-.076-.024-.05-.048-.076-.073-.121l-.189-.587s0-.076-.024-.121c0-.051 0-.121.024-.147.025-.025.025-.05.049-.077 0-.025.024-.025.024-.05.05-.077.14-.122.256-.173l.379-.172.914-.44Zm-1.22 2.31h.092l.049-.026h.024s.05 0 .073-.026l.025.051v.026l.024.025s0 .026-.024.026v.025s0 .026-.025.051c-.024 0-.024.026-.024.051-.024.026-.024.051-.049.096-.024.026-.024.051-.024.076 0 0 0 .026-.025.026-.024.096-.073.223-.091.345l-.024.076a.182.182 0 0 1-.05.121c-.024.051-.024.096-.048.172-.024.052-.024.096-.049.147 0-.05 0-.121-.024-.172 0-.051-.025-.121-.025-.172-.024-.077-.024-.122-.024-.198-.024-.096-.024-.223-.049-.319v-.415s0-.076-.024-.12c.024.025.073.05.091.076.025 0 .05.025.092.025m-.823-3.61v-.026c0-.319.048-.689.091-1.078.049.026.116.051.19.077.353.12.633.268.847.414.378.613.701 1.25.963 1.888l-.396.198-.823.396a.81.81 0 0 0-.28.198h-.025s-.025-.026-.025-.052h-.024s-.024-.025-.049-.025c0 0-.024 0-.024-.026l-.073-.076-.19-.345c-.024-.076-.024-.12-.048-.197v-.026s-.025-.05-.025-.076c-.091-.294-.116-.734-.116-1.25m.14 6.334h.05c.048 0 .091-.026.14-.051.14-.173.28-.396.42-.613.05-.12.116-.223.165-.319v.026c.049-.121.092-.223.14-.345.074-.172.165-.344.281-.567l.354-.861.049-.052.024-.025c.091-.077.189-.121.256-.121h.024s.025-.026.025-.051v-.026l-.025-.025a.426.426 0 0 0-.256.095c.116-.12.232-.197.305-.242.28-.121.445-.223.543-.268 0 .026.024.051.024.077l.232 1.129v.025c-.28.638-.47 1.008-.585 1.155a4.79 4.79 0 0 0-.445.587.413.413 0 0 0-.074.095c-.073.096-.164.198-.231.294l-.116.121-.05.051s0 .026-.024.026a3.512 3.512 0 0 0-.42.44c-.025-.026-.049-.077-.073-.077h-.025s-.024 0-.024.026c-.025 0-.025.025-.025.025l.092.096-.049.051c-.073.076-.213.147-.396.223v-.05l.024-.026v-.026l.024-.025c0-.026.025-.026.025-.051v-.026s0-.025-.025-.025h-.024s-.024 0-.024.025c0 .026-.025.051-.05.077l-.024.025h.025s-.049.051-.092.051H36.8l-.025-.025c0-.026-.024-.026-.024-.026-.025 0-.025.026-.025.026v.095s-.024.051-.024.077c0 .025-.024.05-.049.05-.024.026-.049.026-.091.026-.025 0-.049-.025-.073-.05 0-.147.048-.268.164-.396l.165-.172s.024 0 .024-.026c.025 0 .025-.025.025-.025v-.026s-.025-.025-.05-.025h-.024l-.024.025c-.073.051-.116.121-.189.172a.333.333 0 0 0-.091.173l-.025.025s-.024.077-.024.096c-.025.025-.025.076-.025.096 0 .019-.024.025-.048.05h-.074s-.024 0-.073-.025l-.024-.026v-.025l-.025-.025c.025-.173.14-.37.281-.568l.024-.026s.025-.025.025-.05v-.026s0-.026-.025-.026h-.024s-.024 0-.024.026c0 0 0 .025-.025.025 0 0-.024 0-.024.026a.428.428 0 0 1-.092.12v.026c-.073.077-.091.147-.116.198-.024.051-.073.121-.073.198 0 0 0 .025-.024.05h-.092l-.073-.076-.024-.025.116-.294a.576.576 0 0 1 .116-.223.309.309 0 0 1 .115-.121l.025-.026v-.05s-.025 0-.025-.026l-.024.025c-.049.051-.091.077-.14.147a2.05 2.05 0 0 0-.14.242l-.025.096v.026c-.024.05-.073.076-.091.095 0 0-.025 0-.025-.025 0 0 0-.026-.024-.026 0-.05 0-.076.024-.146a1.6 1.6 0 0 1 .256-.491l.05-.026h.024s.048-.026.091-.026h.024c.05-.05.232-.025.421.052m-4.226-8.695c0-.051 0-.077.025-.096.048 0 .115-.026.189-.026a.18.18 0 0 1 .115-.05c.165-.096.281-.243.379-.466v-.026c.024-.076.048-.146.048-.197 0-.052.025-.122 0-.173v-.025c0-.051 0-.121-.024-.172a.431.431 0 0 0-.214-.32c-.024-.025-.073-.05-.09-.076-.02-.026-.05-.026-.074-.051l-.025-.026h-.048s0 .051.024.051l-.091-.025s0-.026-.025-.051h-.049v-.026a.581.581 0 0 1 .074-.414l.073-.147c.024-.051.024-.121.024-.172v-.096c0-.05.025-.096.025-.147l-.494-.982c-.232-.344-.257-.612-.074-.81.281-.32.586-.44.94-.37 0 0 .024 0 .024.025.659-.293 1.335-.223 1.994.294.634.395 1.195.81 1.665 1.276.33 0 .543.197.585.638.05.076.116.146.165.223.33.517.33 1.078 0 1.671-.28.37-.61.69-.964.983-.024.025-.024.076-.073.095 0 0 0 .026-.024.026-.073.05-.165.095-.232.172.025 0 .025-.026.025-.026v-.025l-.025-.026h-.024s-.049.077-.073.096l-.116.121s-.049.051-.049.077h-.14l-.025.025s-.024 0-.024.026h-.025V13s0 .025.025.025c0 0 .024.026.024 0h.025l.024-.025h.024s.05-.026.074-.026l.073.026c.073.05.116.095.189.146 0 .051-.025.096-.049.147-.091.37-.305.733-.585 1.104a.673.673 0 0 1-.14-.243c0-.025-.025-.025-.025-.025 0-.026-.024-.052-.024-.052s0-.025-.025-.025c0-.026-.024-.051-.024-.051a.258.258 0 0 0-.116-.147l-.049-.05h-.049v.05l.025.026s.024 0 .049.025c.042.02.073.058.091.096 0 0 .024.025.024.051l.025.051c-.073.077-.14.147-.232.223-.024 0-.024.026-.024.026a4.742 4.742 0 0 1-.635.44l-.048.026s-.074.05-.092.076v.026s-.024 0-.024.025v.026l-.19.12h-.048c-.073.052-.116.077-.189.122l-.073-.077-.33-.344s-.024-.051-.048-.051l-.165-.223s-.024-.051-.049-.077v-.025s-.024-.026-.024-.051l-.14-.243s0-.05-.025-.05l-.024-.052-.025-.076c.025-.052.092-.077.092-.122.091-.12.14-.172.232-.172-.074 0-.116 0-.165.051l-.092.096-.048.05c-.025.052-.073.097-.092.122h-.049l-.048.026-.025.025c.025-.096.025-.198.05-.293.048-.224.09-.37.115-.492v-.025s0-.026-.025-.026c.025-.095.074-.146.092-.172 0 0 .024 0 .049-.025l.213-.077s.049-.025.073-.025v.638s0 .025.025.025h.024v.026h-.024s.024.05.024.076h.025s0 .026.024.051l.024.077c0-.051-.024-.077-.024-.121v-.077l-.024-.026h.024v-.223l-.024-.05v-.441c0-.077.024-.172.024-.268.14 0 .305 0 .494-.051.049 0 .091-.026.14-.026.256-.05.47-.076.659-.05h.024l.025-.026s0-.026-.025-.026l-.024-.025h-.073c-.165 0-.378.025-.61.05-.256.052-.494.097-.702.173h-.189c-.189 0-.353-.05-.518-.096-.14-.076-.232-.146-.232-.267l-.024-.051.012.019Zm1.598 4.637s.073-.05.116-.05a.18.18 0 0 1 .116.05.197.197 0 0 1 .048.122.196.196 0 0 1-.048.12.18.18 0 0 1-.116.052.18.18 0 0 1-.116-.051c-.049-.026-.049-.077-.049-.122-.024-.05 0-.095.049-.12Zm-.073-.86s-.049-.077-.049-.122.024-.096.049-.121c.048-.026.073-.051.116-.051a.18.18 0 0 1 .115.05.197.197 0 0 1 .05.122.196.196 0 0 1-.05.121c-.024.051-.073.051-.115.051a.179.179 0 0 1-.116-.05Zm.213 1.964s.073-.051.116-.051a.18.18 0 0 1 .116.05.196.196 0 0 1 .049.122.196.196 0 0 1-.05.121c-.024.051-.072.051-.115.051a.18.18 0 0 1-.116-.05.196.196 0 0 1-.049-.122c0-.044.025-.096.05-.121ZM28.81 11.75v-.095s0-.026.024-.052l.025-.025s.024-.026.048-.026c.025 0 .05 0 .05-.025.024-.026.048-.026.048-.026.024 0 .024-.025.024-.05.025-.026.025-.052.05-.077l.164.025h.024l.397.077.073.025 1.903.294.518.414s.024.026.049.026c.024 0 .024.026.048.026v.095s.025.077.05.096c.024.019.048.076.09.095v.026l.025.026s.073.05.116.076c0 0 .024 0 .024.026l.05.025h.023c.05.026.092.026.14.051h.33l-.14.051h-.025s-.024 0-.024.026l-.073.076s-.049.077-.049.096h.024v-.025h-.024l-.33.05h-.09s-.074 0-.092.026c-.14 0-.256.051-.396.077h-.025c-.049.025-.116.025-.165.05h-.048l-.659.294c-.024 0-.049.026-.091.026h-.025s-.049.025-.073.025c0 0-.024 0-.024.026-.025 0-.05.025-.05.025-.024 0-.048-.025-.072-.05h-.025a.508.508 0 0 0-.47 0l-.56.241c-.074.026-.116.051-.165.077-.024.025-.049.025-.073.051-.14.121-.19.319-.165.568v.025s.024.051.024.096v.096l-.024-.026s-.024-.025-.024-.05h-.025v-.026l-.024-.026c-.116-.147-.232-.37-.354-.612-.024-.026-.024-.077-.049-.096 0-.026-.024-.026-.024-.051a.361.361 0 0 0-.049-.121c0-.026-.024-.051-.024-.077 0-.025-.024-.05-.049-.076 0-.026 0-.051-.024-.077 0-.025-.025-.05-.025-.076 0-.026-.024-.051-.024-.077 0-.026-.024-.051-.024-.077 0-.025 0-.05-.025-.076v-.026s0-.05-.024-.076c.024-.026.049-.026.073-.051.024 0 .049-.026.073-.051.024-.026.049-.026.073-.051 0 0 .025 0 .025-.026.024-.025.048-.025.048-.05.025 0 .025-.026.05-.052.024 0 .024-.025.024-.025.048-.051.091-.096.14-.173l.024-.05c.05-.147.073-.294.05-.415v-.051s-.025-.026-.025-.051c0 0 0-.026-.025-.026v-.05l-.073-.077v-.147h-.073v.038Zm-2.11-.268s0 .051-.024.051a1.496 1.496 0 0 1-.19-.638l1.104.173h.073l.66.095h-.092s-.074 0-.116.051l-.025-.025c-.048 0-.091-.026-.116 0h-.073l-.024-.026s-.024-.025-.049-.025c0-.026-.024-.026-.049-.026h-.189c-.024 0-.073.026-.116.026 0 0-.024.025-.048.025-.33-.095-.586 0-.726.32Zm3.025 4.963-.19.121c-.353.198-.585.294-.7.294-.19 0-.446-.077-.726-.223 0 .025.024.05.048.076-.256-.344-.47-.887-.634-1.62-.213-.957-.305-1.57-.305-1.888l-.024-.026c-.024-.096-.049-.172-.024-.223-.116-.147-.232-.415-.305-.836.024.026.048.026.091.026.14.025.256.05.33.076h.024c.049 0 .091.026.116.026.073 0 .116.025.14.05.049.052.091.077.116.052.049-.026.116-.026.189-.026l.33.077s.072.025.115.076c.049.026.073.077.091.077.019 0 .074-.026.092-.077l.049-.076s-.025-.026-.025-.051a.319.319 0 0 0-.14-.096c-.116-.076-.165-.121-.189-.198v-.095c-.073.095-.073.197-.024.268-.05.05-.092.076-.165.076h-.024s-.025-.025-.05-.025v-.173l.025-.223c0-.242-.024-.415-.073-.491.049.344.049.612 0 .81a.2.2 0 0 1-.28-.025c.024-.026.024-.077.024-.122 0-.044 0-.095.024-.146v-.294s-.024-.076-.049-.146c0-.039-.024-.07-.048-.096h-.025a1 1 0 0 1 .092.37l-.025.293s-.024.051-.024.077c-.116.05-.213 0-.256-.077 0-.05 0-.121.024-.172h-.024v-.026s0-.025-.024-.025c-.025-.077-.05-.147-.05-.172 0-.026 0-.026-.024-.051h-.024s-.024 0-.049.025c0 0-.024.026-.073.051-.024.026-.049.026-.049.051v.026h.049v.05l-.024.052a.861.861 0 0 1-.281-.096.498.498 0 0 1 0-.268c.14-.268.378-.37.683-.268.213-.095.354-.076.42.077 0-.026.05-.026.05-.026.048-.025.091-.025.164-.025.025 0 .025.025.049.025.116-.076.213-.05.28.026v.095h.025a.929.929 0 0 1 0 .517c.037.02.08.026.116.026h.189c.049.121.049.268 0 .44-.024.05-.092.121-.14.172-.05.026-.092.077-.165.121-.049.026-.091.051-.213.096-.074.026-.092.051-.092.096 0 .044.049.172.116.319.049.095.116.172.14.223l.14.37c.165.344.305.638.47.836.116.146.232.293.305.44l.165-.096s0 .026.024.026c.024.076.049.146.049.242.024.147.073.293.116.491 0 .121.024.32.048.76l.019-.02Zm1.475.051-.56.243h-.05s-.024 0-.024.025h-.073s-.073-.025-.14-.05c-.049-.026-.073-.052-.073-.052h-.025a.247.247 0 0 0-.073-.096s-.024-.025-.024-.05a.246.246 0 0 0-.074-.096c-.024-.051-.024-.096-.073-.198-.049-.077-.073-.147-.091-.198-.049-.076-.073-.147-.092-.198a1.97 1.97 0 0 0-.14-.395c-.024-.077-.049-.147-.049-.198 0-.038-.024-.07-.049-.096 0-.05 0-.076-.024-.095v-.051l-.049-.096c-.024-.076-.049-.121-.073-.198-.073-.293 0-.49.214-.567l.56-.243c.14-.05.281-.025.379.077l.024.025s.024.026.024.051c0 .026.025.051.074.122.024.05.048.095.073.172l.445 1.205.073.224a.639.639 0 0 1 .073.268c.092.223 0 .395-.189.465m.964-2.87a1.763 1.763 0 0 0-.165.395 4.191 4.191 0 0 0-.231 1.18c0 .096-.025.172-.025.268v.243c0 .05 0 .095.025.12l-.025.026s-.049 0-.049.026c-.048.025-.116.05-.164.076l-.073-.223-.519-1.422c-.024-.051-.049-.122-.073-.173a.5.5 0 0 0-.073-.12s0-.026-.025-.026h.025l.963-.44c.05-.026.116-.026.165-.052.14-.05.256-.076.378-.095a.85.85 0 0 0-.14.223m2.232 13.702c-1.83-1.473-3.617-3.489-5.355-6.092a23.152 23.152 0 0 0 3.5-2.258c.422-.319.848-.638 1.245-1.008.658.983 1.36 1.94 2.134 2.8 0 0-.016.01-.049.026a1.063 1.063 0 0 0-.28.542c-.024.096-.024.147-.024.198a.348.348 0 0 0 .091.077h.024v.025l.025.051.073.077.024.025.025.026h.091s.025.05.05.076l.048.026s.049.025.073.025h.19c.09.077.164.096.255.052a.197.197 0 0 0 .049-.122v-.05s.024-.026.049-.026h.024s.049 0 .073-.026l.214.224s.06.057.091.076c.89.906 1.854 1.742 2.867 2.507-1.574 1.448-3.428 2.36-5.495 2.775m-2.159-5.129c-.232.121-.445.268-.683.415a19.832 19.832 0 0 0 3.568 3.853c.048-.026.073-.051.115-.077.19-.096.379-.223.561-.344a20.195 20.195 0 0 1-3.567-3.853" fill="#000"/><path d="m34.765 20.477-.585.44a21.567 21.567 0 0 0 3.567 3.879c.025-.026.073-.051.092-.077l.494-.37a22.975 22.975 0 0 1-3.568-3.878" fill="#000"/><path d="M37.465 18.244h.091l.049-.025h.024s.049 0 .073-.026l.025.051v.026l.024.025s0 .026-.024.026v.025s0 .026-.025.051c-.024 0-.024.026-.024.051-.024.026-.024.052-.049.096-.024.026-.024.051-.024.077 0 0 0 .025-.024.025l-.092.345s0 .025-.024.076a.182.182 0 0 1-.05.121c-.024.052-.024.096-.048.173-.024.05-.024.095-.049.146 0-.05 0-.12-.024-.172 0-.05-.025-.121-.025-.172-.024-.077-.024-.121-.024-.198-.024-.096-.024-.223-.049-.319v-.414s0-.077-.024-.122c.024.026.073.051.091.077.025 0 .05.025.092.025" fill="#fff"/></g><defs><clipPath id="a"><path fill="#fff" d="M0 0h108v39.289H0z"/></clipPath></defs></svg>