<svg xmlns="http://www.w3.org/2000/svg" viewBox="0 0 33 22" preserveAspectRatio="xMidYMid meet">
    <path d="M31.04.25c.587 0 1.013.08 1.28.24.32.16.427.427.32.8-.107.32-.373.614-.8.88-.373.214-.853.4-1.44.56a15.29 15.29 0 0 0-4.08 2c-1.173.854-2.107 1.814-2.8 2.88-.64 1.014-.96 2.08-.96 3.2 0 .747.24 1.334.72 1.76a7.953 7.953 0 0 0 1.68 1.04 4.36 4.36 0 0 1 1.6 1.04c.48.48.72 1.12.72 1.92 0 1.387-.56 2.587-1.68 3.6-1.12 1.014-2.453 1.52-4 1.52-1.707 0-3.173-.56-4.4-1.68-1.173-1.12-1.76-2.693-1.76-4.72 0-1.866.453-3.706 1.36-5.52a16.031 16.031 0 0 1 3.68-4.8c1.547-1.44 3.227-2.586 5.04-3.44C27.387.678 29.227.25 31.04.25Zm-15.36 0c.533 0 .933.08 1.2.24.32.16.427.427.32.8-.053.32-.293.614-.72.88-.373.214-.853.4-1.44.56a15.29 15.29 0 0 0-4.08 2c-1.173.854-2.107 1.814-2.8 2.88-.693 1.014-1.04 2.08-1.04 3.2 0 .747.24 1.334.72 1.76.533.427 1.12.774 1.76 1.04a4.36 4.36 0 0 1 1.6 1.04c.48.48.72 1.12.72 1.92 0 1.387-.587 2.587-1.76 3.6-1.12 1.014-2.427 1.52-3.92 1.52-1.76 0-3.253-.56-4.48-1.68C.587 18.89 0 17.318 0 15.29c0-1.866.453-3.706 1.36-5.52a16.031 16.031 0 0 1 3.68-4.8c1.547-1.44 3.227-2.586 5.04-3.44C11.947.678 13.813.25 15.68.25Z" fill="#278288"/>
</svg>
