<?xml version="1.0" encoding="UTF-8"?>
<svg width="32" height="32" viewBox="0 0 32 32" xmlns="http://www.w3.org/2000/svg">
    <title>next-icon-bold</title>
    <g id="icona-freccia" fill="#a83946" stroke="#a83946" stroke-width="1.2" stroke-linejoin="round" stroke-linecap="round">
        <path d="M19,26a1,1,0,0,1-.71-.29,1,1,0,0,1,0-1.42L26.59,16l-8.3-8.29a1,1,0,0,1,1.42-1.42l9,9a1,1,0,0,1,0,1.42l-9,9A1,1,0,0,1,19,26Z"/>
        <path d="M28,17H4a1,1,0,0,1,0-2H28a1,1,0,0,1,0,2Z"/>
    </g>
</svg>
